/* XPM */
static char *result[] = {
/* columns rows colors chars-per-pixel */
"64 64 5 1 ",
"  c black",
". c red",
"X c #5A5D82",
"o c #B2B2B2",
"O c white",
/* pixels */
"                       XXXXXXXXXXXXXXXXXXXXXX                   ",
"                       XXXXXXXXXXXXXXXXXXXXXX                   ",
"                       XXXXXXXXXXXXXXXXXXXXXX                   ",
"                       XXXXXXXXXXXXXXXXXXXXXX                   ",
"                       XXXXXXXXXXXXXXXXXXXXXX                   ",
"                       XXXXXXXXXXXXXXXXXXXXXX                   ",
"                       XXXXXXXXXXXXXXXXXXXXXX                   ",
"                       XXXX       XXXXXXXXXXX                   ",
"                       XXX ....... XXXXXXXXXX                   ",
"                       X  .........  XXXXXXXX                   ",
"                        ............. XXXXXXX                   ",
"                       ............... XXXXXX                   ",
"                      ................. XXXXX                   ",
"                      ................. XXXXX                   ",
"                     ..OOOOOO........... XXXX                   ",
"                     ..OOOOOO........... XXXX                   ",
"XXXXXXXXXXXXXXXXXXX ...OOOOOO............    XXXXXXXXXXXXXXXXXXX",
"XXXXXXXXXXXXXXXXXX ....OOOOOO.............   XXXXXXXXXXXXXXXXXXX",
"XXXXXXXXXXXXXXXXXX ....OOOOOO.............   XXXXXXXXXXXXXXXXXXX",
"XXXXXXXXXXXXXXXXXX .......................   XXXXXXXXXXXXXXXXXXX",
"XXXXXXXXXXXXXXXXXX .......................   XXXXXXXXXXXXXXXXXXX",
"XXXXXXXXXXXXXXXXXX .......................   XXXXXXXXXXXXXXXXXXX",
"XXXXXXXXXXXXXXXXXX .......................   XXXXXXXXXXXXXXXXXXX",
"XXXXXXXXXXXXXXXXXX .......................   XXXXXXXXXXXXXXXXXXX",
"XXXXXXXXXXXXXXXXXXX .....................    XXXXXXXXXXXXXXXXXXX",
"XXXXXXXXXXXXXXXXXXXX ...................     XXXXXXXXXXXXXXXXXXX",
"XXXXXXXXXXXXXXXXXXXX ...................     XXXXXXXXXXXXXXXXXXX",
"XXXXXXXXXXXXXXXXXXXXX .................      XXXXXXXXXXXXXXXXXXX",
"XXXXXXXXXXXXXXXXXXXXX .................      XXXXXXXXXXXXXXXXXXX",
"XXXXXXXXXXXXXXXXXXXXXX ...............       XXXXXXXXXXXXXXXXXXX",
"XXXXXXXXXXXXXXXXXXXXXX ...............       XXXXXXXXXXXXXXXXXXX",
"                        ............. XXXXXXX                   ",
"                        ............. XXXXXXX                   ",
"                       X ........... XXXXXXXX                   ",
"                       XX    OOo    XXXXXXXXX                   ",
"                       XXXXX OOo XXXXXXXXXXXX                   ",
"                       XXXXX OOo XXXXXXXXXXXX                   ",
"                       XXXXX OOo XXXXXXXXXXXX                   ",
"                       XXXXX OOo XXXXXXXXXXXX                   ",
"                       XXXXX OOo XXXXXXXXXXXX                   ",
"                       XXXXX OOo XXXXXXXXXXXX                   ",
"                       XXXXX OOo XXXXXXXXXXXX                   ",
"                       XXXXX OOo XXXXXXXXXXXX                   ",
"                       XXXXX OOo XXXXXXXXXXXX                   ",
"                       XXXXX OOo XXXXXXXXXXXX                   ",
"                       XXXXX OOo XXXXXXXXXXXX                   ",
"                       XXXXX OOo XXXXXXXXXXXX                   ",
"                       XXXXX OOo XXXXXXXXXXXX                   ",
"XXXXXXXXXXXXXXXXXXXXXXX      OOo             XXXXXXXXXXXXXXXXXXX",
"XXXXXXXXXXXXXXXXXXXXXXX      OOo             XXXXXXXXXXXXXXXXXXX",
"XXXXXXXXXXXXXXXXXXXXXXX      OOo             XXXXXXXXXXXXXXXXXXX",
"XXXXXXXXXXXXXXXXXXXXXXX      OOo             XXXXXXXXXXXXXXXXXXX",
"XXXXXXXXXXXXXXXXXXXXXXX      OOo             XXXXXXXXXXXXXXXXXXX",
"XXXXXXXXXXXXXXXXXXXXXXX      OOo             XXXXXXXXXXXXXXXXXXX",
"XXXXXXXXXXXXXXXXXXXXXXX      OOo             XXXXXXXXXXXXXXXXXXX",
"XXXXXXXXXXXXXXXXXXXXXXX      OOo             XXXXXXXXXXXXXXXXXXX",
"XXXXXXXXXXXXXXXXXXXXXXX      OOo             XXXXXXXXXXXXXXXXXXX",
"XXXXXXXXXXXXXXXXXXXXXXX      OOo             XXXXXXXXXXXXXXXXXXX",
"XXXXXXXXXXXXXXXXXXXXXXX      OOo             XXXXXXXXXXXXXXXXXXX",
"XXXXXXXXXXXXXXXXXXXXXXX      OO              XXXXXXXXXXXXXXXXXXX",
"XXXXXXXXXXXXXXXXXXXXXXX                      XXXXXXXXXXXXXXXXXXX",
"XXXXXXXXXXXXXXXXXXXXXXX                      XXXXXXXXXXXXXXXXXXX",
"XXXXXXXXXXXXXXXXXXXXXXX                      XXXXXXXXXXXXXXXXXXX",
"XXXXXXXXXXXXXXXXXXXXXXX                      XXXXXXXXXXXXXXXXXXX"
};
