/* XPM */
static char *result[] = {
/* columns rows colors chars-per-pixel */
"64 64 5 1 ",
"  c black",
". c red",
"X c #771BB5",
"o c #5A5D82",
"O c white",
/* pixels */
"                       oooooooooooooooooooooo                   ",
"                       oooooooooooooooooooooo                   ",
"                       oooooooooooooooooooooo                   ",
"                       oooooooooooooooooooooo                   ",
"                       oooooooooooooooooooooo                   ",
"                       oooooooooooooooooooooo                   ",
"                       oooooooooooooooooooooo                   ",
"                       oooooooooooooooooooooo                   ",
"                       oooooooooooooooooooooo                   ",
"                       oooooooooooooooooooooo                   ",
"                       oooooooooooooooooooooo                   ",
"                       oooooooooooooooooooooo                   ",
"                       oooooooooooooooooooooo                   ",
"                       oooooooooooooooooooooo                   ",
"                       oooo          oooooooo                   ",
"                       o   OOOOOOOOO    ooooo                   ",
"ooooooooooooooooooooooo OOOOOOOOOOOOOOOO     ooooooooooooooooooo",
"oooooooooooooooooooooo OOOOOOOOOOOOOOOOOO    ooooooooooooooooooo",
"oooooooooooooooooooooo OOOOOOOOOOOOOOOOOO    ooooooooooooooooooo",
"ooooooooooooooooooooo OOOOOOOOOOOOOOOOOOOO   ooooooooooooooooooo",
"oooooooooooooooooooo OOOOOOOOOOOOOOOOOOOOOO  ooooooooooooooooooo",
"oooooooooooooooooooo OOOOOOOOOOOOOOOOOOOOOO  ooooooooooooooooooo",
"oooooooooooooooooooo OOOOOOOOOOOOOOOOOOOOOO  ooooooooooooooooooo",
"ooooooooooooooooooo OOOOOOOOOOOOOOOOOOOOOOOO ooooooooooooooooooo",
"oooooooooooooooooo OOOOOOOOOOOOOOOOOOOOOOOOOO oooooooooooooooooo",
"oooooooooooooooooo OO         OOOO         OO oooooooooooooooooo",
"oooooooooooooooooo OO   OOO   OOOO   OOO   OO oooooooooooooooooo",
"oooooooooooooooooo OO   OOO   OOOO   OOO   OO oooooooooooooooooo",
"oooooooooooooooooo OOO       OOOOOO       OOO oooooooooooooooooo",
"ooooooooooooooooo OOOOOOXXXOOOOOOOOOOXXXOOOOOO ooooooooooooooooo",
"ooooooooooooooooo OOOOOOXXXOOOOOOOOOOXXXOOOOOO ooooooooooooooooo",
"                  OO...OXXXOOOOOOOOOOXXXO...OO                  ",
"                  O.....XXXOOOOOOOOOOXXX.....O                  ",
"                  O.....XXXOOOOOOOOOOXXX.....O                  ",
"                  O.....XXXOOOOOOOOOOXXX.....O                  ",
"                  OO...OXXXOO......OOXXXO...OO                  ",
"                  OOOOOOXXXO........OXXXOOOOOO                  ",
"                   OOO                    OOO                   ",
"                   OOO                    OOO                   ",
"                   OOOO                  OOOO                   ",
"                   OOOO                  OOOO                   ",
"                   OOOO                  OOOO                   ",
"                    OOOO                OOOO                    ",
"                     OOOOO            OOOOO o                   ",
"                     OOOOOO          OOOOOO o                   ",
"                     OOOOOOO        OOOOOOO o                   ",
"                      OOOOOO........OOOOOO oo                   ",
"                       OOOOOOOOOOOOOOOOOO ooo                   ",
"ooooooooooooooooooooooo   OOOOOOOOOOOOO      ooooooooooooooooooo",
"ooooooooooooooooooooooo    OOOOOOOOOOO       ooooooooooooooooooo",
"ooooooooooooooooooooooo                      ooooooooooooooooooo",
"ooooooooooooooooooooooo                      ooooooooooooooooooo",
"ooooooooooooooooooooooo                      ooooooooooooooooooo",
"ooooooooooooooooooooooo                      ooooooooooooooooooo",
"ooooooooooooooooooooooo                      ooooooooooooooooooo",
"ooooooooooooooooooooooo                      ooooooooooooooooooo",
"ooooooooooooooooooooooo                      ooooooooooooooooooo",
"ooooooooooooooooooooooo                      ooooooooooooooooooo",
"ooooooooooooooooooooooo                      ooooooooooooooooooo",
"ooooooooooooooooooooooo                      ooooooooooooooooooo",
"ooooooooooooooooooooooo                      ooooooooooooooooooo",
"ooooooooooooooooooooooo                      ooooooooooooooooooo",
"ooooooooooooooooooooooo                      ooooooooooooooooooo",
"ooooooooooooooooooooooo                      ooooooooooooooooooo"
};
