/* XPM */
static char *result[] = {
/* columns rows colors chars-per-pixel */
"64 64 5 1 ",
"  c black",
". c red",
"X c #771BB5",
"o c white",
"O c None",
/* pixels */
"OOOOOOOOOOOOOOOOOOOOOOOOOOOOOOOOOOOOOOOOOOOOOOOOOOOOOOOOOOOOOOOO",
"OOOOOOOOOOOOOOOOOOOOOOOOOOOOOOOOOOOOOOOOOOOOOOOOOOOOOOOOOOOOOOOO",
"OOOOOOOOOOOOOOOOOOOOOOOOOOOOOOOOOOOOOOOOOOOOOOOOOOOOOOOOOOOOOOOO",
"OOOOOOOOOOOOOOOOOOOOOOOOOOOOOOOOOOOOOOOOOOOOOOOOOOOOOOOOOOOOOOOO",
"OOOOOOOOOOOOOOOOOOOOOOOOOOOOOOOOOOOOOOOOOOOOOOOOOOOOOOOOOOOOOOOO",
"OOOOOOOOOOOOOOOOOOOOOOOOOOOOOOOOOOOOOOOOOOOOOOOOOOOOOOOOOOOOOOOO",
"OOOOOOOOOOOOOOOOOOOOOOOOOOOOOOOOOOOOOOOOOOOOOOOOOOOOOOOOOOOOOOOO",
"OOOOOOOOOOOOOOOOOOOOOOOOOOOOOOOOOOOOOOOOOOOOOOOOOOOOOOOOOOOOOOOO",
"OOOOOOOOOOOOOOOOOOOOOOOOOOOOOOOOOOOOOOOOOOOOOOOOOOOOOOOOOOOOOOOO",
"OOOOOOOOOOOOOOOOOOOOOOOOOOOOOOOOOOOOOOOOOOOOOOOOOOOOOOOOOOOOOOOO",
"OOOOOOOOOOOOOOOOOOOOOOOOOOOOOOOOOOOOOOOOOOOOOOOOOOOOOOOOOOOOOOOO",
"OOOOOOOOOOOOOOOOOOOOOOOOOOOOOOOOOOOOOOOOOOOOOOOOOOOOOOOOOOOOOOOO",
"OOOOOOOOOOOOOOOOOOOOOOOOOOOOOOOOOOOOOOOOOOOOOOOOOOOOOOOOOOOOOOOO",
"OOOOOOOOOOOOOOOOOOOOOOOOOOOOOOOOOOOOOOOOOOOOOOOOOOOOOOOOOOOOOOOO",
"OOOOOOOOOOOOOOOOOOOOOOOOOOOOO          OOOOOOOOOOOOOOOOOOOOOOOOO",
"OOOOOOOOOOOOOOOOOOOOOOOOOO   ooooooooo    OOOOOOOOOOOOOOOOOOOOOO",
"OOOOOOOOOOOOOOOOOOOOOOOOO oooooooooooooooo OOOOOOOOOOOOOOOOOOOOO",
"OOOOOOOOOOOOOOOOOOOOOOOO oooooooooooooooooo OOOOOOOOOOOOOOOOOOOO",
"OOOOOOOOOOOOOOOOOOOOOOOO oooooooooooooooooo OOOOOOOOOOOOOOOOOOOO",
"OOOOOOOOOOOOOOOOOOOOOOO oooooooooooooooooooo OOOOOOOOOOOOOOOOOOO",
"OOOOOOOOOOOOOOOOOOOOOO oooooooooooooooooooooo OOOOOOOOOOOOOOOOOO",
"OOOOOOOOOOOOOOOOOOOOOO oooooooooooooooooooooo OOOOOOOOOOOOOOOOOO",
"OOOOOOOOOOOOOOOOOOOOOO oooooooooooooooooooooo OOOOOOOOOOOOOOOOOO",
"OOOOOOOOOOOOOOOOOOOOO oooooooooooooooooooooooo OOOOOOOOOOOOOOOOO",
"OOOOOOOOOOOOOOOOOOOO oooooooooooooooooooooooooo OOOOOOOOOOOOOOOO",
"OOOOOOOOOOOOOOOOOOOO oo         oooo         oo OOOOOOOOOOOOOOOO",
"OOOOOOOOOOOOOOOOOOOO oo   ooo   oooo   ooo   oo OOOOOOOOOOOOOOOO",
"OOOOOOOOOOOOOOOOOOOO oo   ooo   oooo   ooo   oo OOOOOOOOOOOOOOOO",
"OOOOOOOOOOOOOOOOOOOO ooo       oooooo       ooo OOOOOOOOOOOOOOOO",
"OOOOOOOOOOOOOOOOOOO ooooooXXXooooooooooXXXoooooo OOOOOOOOOOOOOOO",
"OOOOOOOOOOOOOOOOOOO ooooooXXXooooooooooXXXoooooo OOOOOOOOOOOOOOO",
"OOOOOOOOOOOOOOOOOOO oo...oXXXooooooooooXXXo...oo OOOOOOOOOOOOOOO",
"OOOOOOOOOOOOOOOOOOO o.....XXXooooooooooXXX.....o OOOOOOOOOOOOOOO",
"OOOOOOOOOOOOOOOOOOO o.....XXXooooooooooXXX.....o OOOOOOOOOOOOOOO",
"OOOOOOOOOOOOOOOOOOO o.....XXXooooooooooXXX.....o OOOOOOOOOOOOOOO",
"OOOOOOOOOOOOOOOOOOO oo...oXXXoo......ooXXXo...oo OOOOOOOOOOOOOOO",
"OOOOOOOOOOOOOOOOOOO ooooooXXXo........oXXXoooooo OOOOOOOOOOOOOOO",
"OOOOOOOOOOOOOOOOOOOO ooo                    ooo OOOOOOOOOOOOOOOO",
"OOOOOOOOOOOOOOOOOOOO ooo                    ooo OOOOOOOOOOOOOOOO",
"OOOOOOOOOOOOOOOOOOOO oooo                  oooo OOOOOOOOOOOOOOOO",
"OOOOOOOOOOOOOOOOOOOO oooo                  oooo OOOOOOOOOOOOOOOO",
"OOOOOOOOOOOOOOOOOOOO oooo                  oooo OOOOOOOOOOOOOOOO",
"OOOOOOOOOOOOOOOOOOOOO oooo                oooo OOOOOOOOOOOOOOOOO",
"OOOOOOOOOOOOOOOOOOOOOO ooooo            ooooo OOOOOOOOOOOOOOOOOO",
"OOOOOOOOOOOOOOOOOOOOOO oooooo          oooooo OOOOOOOOOOOOOOOOOO",
"OOOOOOOOOOOOOOOOOOOOOO ooooooo        ooooooo OOOOOOOOOOOOOOOOOO",
"OOOOOOOOOOOOOOOOOOOOOOO oooooo........oooooo OOOOOOOOOOOOOOOOOOO",
"OOOOOOOOOOOOOOOOOOOOOOOO oooooooooooooooooo OOOOOOOOOOOOOOOOOOOO",
"OOOOOOOOOOOOOOOOOOOOOOOOO   ooooooooooooo  OOOOOOOOOOOOOOOOOOOOO",
"OOOOOOOOOOOOOOOOOOOOOOOOOOOO ooooooooooo OOOOOOOOOOOOOOOOOOOOOOO",
"OOOOOOOOOOOOOOOOOOOOOOOOOOOOO           OOOOOOOOOOOOOOOOOOOOOOOO",
"OOOOOOOOOOOOOOOOOOOOOOOOOOOOOOOOOOOOOOOOOOOOOOOOOOOOOOOOOOOOOOOO",
"OOOOOOOOOOOOOOOOOOOOOOOOOOOOOOOOOOOOOOOOOOOOOOOOOOOOOOOOOOOOOOOO",
"OOOOOOOOOOOOOOOOOOOOOOOOOOOOOOOOOOOOOOOOOOOOOOOOOOOOOOOOOOOOOOOO",
"OOOOOOOOOOOOOOOOOOOOOOOOOOOOOOOOOOOOOOOOOOOOOOOOOOOOOOOOOOOOOOOO",
"OOOOOOOOOOOOOOOOOOOOOOOOOOOOOOOOOOOOOOOOOOOOOOOOOOOOOOOOOOOOOOOO",
"OOOOOOOOOOOOOOOOOOOOOOOOOOOOOOOOOOOOOOOOOOOOOOOOOOOOOOOOOOOOOOOO",
"OOOOOOOOOOOOOOOOOOOOOOOOOOOOOOOOOOOOOOOOOOOOOOOOOOOOOOOOOOOOOOOO",
"OOOOOOOOOOOOOOOOOOOOOOOOOOOOOOOOOOOOOOOOOOOOOOOOOOOOOOOOOOOOOOOO",
"OOOOOOOOOOOOOOOOOOOOOOOOOOOOOOOOOOOOOOOOOOOOOOOOOOOOOOOOOOOOOOOO",
"OOOOOOOOOOOOOOOOOOOOOOOOOOOOOOOOOOOOOOOOOOOOOOOOOOOOOOOOOOOOOOOO",
"OOOOOOOOOOOOOOOOOOOOOOOOOOOOOOOOOOOOOOOOOOOOOOOOOOOOOOOOOOOOOOOO",
"OOOOOOOOOOOOOOOOOOOOOOOOOOOOOOOOOOOOOOOOOOOOOOOOOOOOOOOOOOOOOOOO",
"OOOOOOOOOOOOOOOOOOOOOOOOOOOOOOOOOOOOOOOOOOOOOOOOOOOOOOOOOOOOOOOO"
};
