/* XPM */
static char *_5156f0913a14638bfbae154e5479ef2Bap3lc55FVYeOxlr[] = {
/* columns rows colors chars-per-pixel */
"148 118 27 1 ",
"  c None",
". c black",
"X c #000004",
"o c #000006",
"O c #000009",
"+ c #04040F",
"@ c #0A0A13",
"# c #0F0F16",
"$ c #161720",
"% c #1D1D28",
"& c #1E1E2C",
"* c #21212D",
"= c #212130",
"- c #252534",
"; c #292938",
": c #2D2D3D",
"> c #303043",
", c #323245",
"< c #353547",
"1 c #35354A",
"2 c #39394F",
"3 c #3B3B50",
"4 c #3D3D54",
"5 c #3F3F58",
"6 c #44445C",
"7 c #464661",
"8 c #50506C",
/* pixels */
">33>2222222222222222222222222222222222222222222222222222222222222222>4:+........................................................................    ",
">23:2222222222222222222222222222222222222222222222222222222222222222>6>X........................................................................    ",
">252222222222222222222222222222222222222222222222222222222222222222216<+........................................................................    ",
"<23<2222222222222222222222222222222222222222222222222222222222222222<5>@........................................................................    ",
"<23<2222222222222222222222222222222222222222222222222222222222222222<5>@........................................................................    ",
"<23<2222222222222222222222222222222222222222222222222222222222222222<5>@........................................................................    ",
"<23<2222222222222222222222222222222222222222222222222222222222222222<5>@........................................................................    ",
"<<2<2222222222222222<<<<<<<<222222222222222222222222222222222222222222<#........................................................................    ",
"<<2<2222222222222222<<<<<<<<22222222222222222222222222222222222222223<<#........................................................................    ",
"<<2<2222222222222222<<<<<<<<22222222222222222222222222222222222222223<<#........................................................................    ",
"<<2<2222222222222222<<<<<<<<22222222222222222222222222222222222222223<<#........................................................................    ",
"<<2<2222222222222222<<<<<<<<22222222222222222222222222222222222222223<<#........................................................................    ",
"<23<22222222222222222222222222222222222222222222222222222222222222223<<#........................................................................    ",
"<23<22222222222222222222222222222222222222222222222222222222222222223<<#........................................................................    ",
"<23<22222222222222222222222222222222222222222222222222222222222222223<<#........................................................................    ",
"<23<22222222222222222222222222222222222222222222222222222222222222223<<#........................................................................    ",
"<23<22222222222222222222222222222222222222222222222222222222222222223<<#........................................................................    ",
"<23<22222222222222222222222222222222222222222222222222222222222222223<<#........................................................................    ",
"<23<22222222222222222222222222222222222222222222222222222222222222223<<#........................................................................    ",
"<23<22222222222222222222222222222222222222222222222222222222222222223<<#........................................................................    ",
"<23<22222222222222222222222222222222222222222222222222222222222222223<<#........................................................................    ",
"<23<22222222222222222222222222222222222222222222222222222222222222223<<#........................................................................    ",
"<23<<<<<<<<<222222222222222222222222222222222222222222222222222222223<<#........................................................................    ",
"<23<<<<<<<<<222222222222222222222222222222222222222222222222222222223<<#........................................................................    ",
"<23<<<<<<<<<222222222222222222222222222222222222222222222222222222223<<#........................................................................    ",
"<23<<<<<<<<<222222222222222222222222222222222222222222222222222222223<<#........................................................................    ",
"<23<<<<<<<<<222222222222222222222222222222222222222222222222222222223<<#........................................................................    ",
"<<2<22222222222222222222222222222222222222222222222222222222222222223<<#........................................................................    ",
"<<2<22222222222222222222222222222222222222222222222222222222222222223<<#........................................................................    ",
"<<2<22222222222222222222222222222222222222222222222222222222222222223<<#........................................................................    ",
"<<2<22222222222222222222222222222222222222222222222222222222222222223<<#........................................................................    ",
"<<2<22222222222222222222222222222222222222222222222222222222222222223<<#........................................................................    ",
"<23<22222222222222222222222222222222222222222222222222222222222222223<<#........................................................................    ",
"<23<22222222222222222222222222222222222222222222222222222222222222223<<#........................................................................    ",
"<23<22222222222222222222222222222222222222222222222222222222222222223<<#........................................................................    ",
"<23<22222222222222222222222222222222222222222222222222222222222222223<<#........................................................................    ",
">2222222222222222222222222222222222222222222222222222222222222222222322#........................................................................    ",
"56233333333333333333333333333333333333333333333333333333333333333333372+........................................................................    ",
"==$$================================================================&=%#+++OOXXXXXXOXOXOXOXX++++++++XOXXOXXX++++++++++++++++XXXXXXXX+++++++++@..    ",
".......................................................................$3655444444444444444433333333444444443333333333333333333333333333333332,4    ",
".......................................................................=74>21111111111111111<<<<1<<<11111111<<<<<<<<<<<<1<<<22222222<<<<<<<<><27    ",
".......................................................................=4>>422223322222222222222222222222222222222222222222222222222222222222422    ",
".......................................................................=2<2<2222222222222222222222222222222222222222222222222222222222222222<<<3    ",
".......................................................................=2<2<2222222222222222222222222222222222222222222222222222222222222222<<<3    ",
".......................................................................=2<2<2222222222222222222222222222222222222222222222222222222222222222<<<3    ",
".......................................................................=212<2222222222222222222222222222222222222222222222222222222222222222<<<3    ",
".......................................................................=3,3,2222222222222222222222222222222222222222222222222222222222222222<<<3    ",
".......................................................................=31112222222222222222222222222222222222222222222222222222222222222222<<<3    ",
".......................................................................=2<2<2222222222222222222222222222222222222222222222222222222222222222<<<3    ",
".......................................................................=2<2<2222222222222222222222222222222222222222222222222222222222222222<<<3    ",
".......................................................................=2<2<2222222222222222222222222222222222222222222222222222222222222222<<<3    ",
".......................................................................=2<2<2222222222222222222222222222222222222222222222222222222222222222<,22    ",
".......................................................................=2<2<22222222222222222222222222222222222222222222222222222222222222222>5>    ",
".......................................................................=2<2<22222222222222222222222222222222222222222222222222222222222222222>5>    ",
".......................................................................=2<2<22222222222222222222222222222222222222222222222222222222222222222>5>    ",
".......................................................................=2<2<22222222222222222222222222222222222222222222222222222222222222222>5>    ",
".......................................................................=2<2<22222222222222222222222222222222222222222222222222222222222222222>5>    ",
".......................................................................=2<2<22222222222222222222222222222222222222222222222222222222222222222>5>    ",
".......................................................................=2<2<22222222222222222222222222222222222222222222222222222222222222222>5>    ",
".......................................................................=2<2<22222222222222222222222222222222222222222222222222222222222222222>5>    ",
".......................................................................=2<2<22222222222222222222222222222222222222222222222222222222222222222>5>    ",
".......................................................................=2<2<22222222222222222222222222222222222222222222222222222222222222222>2<    ",
".......................................................................=2<2<2222222222222222222222222222222222222222222222222222222222222222<<<3    ",
".......................................................................=2<2<2222222222222222222222222222222222222222222222222222222222222222<<<3    ",
".......................................................................=2<2<2222222222222222222222222222222222222222222222222222222222222222<<<3    ",
".......................................................................=2<2<2222222222222222222222222222222222222222222222222222222222222222<<<3    ",
".......................................................................=2<2<2222222222222222222222222222222222222222222222222222222222222222<<<3    ",
".......................................................................=2<2<2222222222222222222222222222222222222222222222222222222222222222<<<3    ",
".......................................................................=2<2<2222222222222222222222222222222222222222222222222222222222222222<<<3    ",
".......................................................................=2<2<2222222222222222222222222222222222222222222222222222222222222222<<<3    ",
".......................................................................=2<2<2222222222222222222222222222222222222222222222222222222222222222<<<3    ",
".......................................................................=2<2<22222222222222222222222222222222222222222222222222222222222222222,2>    ",
".......................................................................=2<2<22222222222222222222222222222222222222222222222222222222222222223>4:    ",
".......................................................................=2<2<22222222222222222222222222222222222222222222222222222222222222223>4:    ",
".......................................................................=2<2<22222222222222222222222222222222222222222222222222222222222222223>4:    ",
".......................................................................=2<2<22222222222222222222222222222222222222222222222222222222222222223>4:    ",
".......................................................................=4>>6<<<<<<<<222222222222222222222222222222222222222222222222222222226>23    ",
".......................................................................-72>5<<<<<<<<222222222222222233333333222222222222222222222222222222223>28    ",
".......................................................................*332222222222444444444444444433333333444444444444444444444444444444443245    ",
"&;;&================================================================--=$@XX.OOOOOOOOOOOOOOOOOOOOOOOOOOOOOOOOOOOOOOOOOOOOOOOOOOOOOOOOOOOOOOOO++XO    ",
"<23<4444444444444444444444444444444444444444444444444444444444444444272+........................................................................    ",
"><2>2222222222222222222222222222222222222222222222222222222222222222<2<#........................................................................    ",
"<23<22222222222222222222222222222222222222222222222222222222222222223<<#........................................................................    ",
"<23<22222222222222222222222222222222222222222222222222222222222222223<<#........................................................................    ",
"<23<22222222222222222222222222222222222222222222222222222222222222223<<#........................................................................    ",
"<23<22222222222222222222222222222222222222222222222222222222222222223<<#........................................................................    ",
"<23<22222222222222222222222222222222222222222222222222222222222222223<<#........................................................................    ",
"<23<22222222222222222222222222222222222222222222222222222222222222223<<#........................................................................    ",
"<23<22222222222222222222222222222222222222222222222222222222222222223<<#........................................................................    ",
"<23<22222222222222222222222222222222222222222222222222222222222222223<<#........................................................................    ",
"<23<22222222222222222222222222222222222222222222222222222222222222223<<#........................................................................    ",
"23<222222222222222222222222222222222222222222222222222222222222222223<<#........................................................................    ",
"33>222222222222222222222222222222222222222222222222222222222222222223<<#........................................................................    ",
"33>222222222222222222222222222222222222222222222222222222222222222223<<#........................................................................    ",
"33>222222222222222222222222222222222222222222222222222222222222222223<<#........................................................................    ",
"33>222222222222222222222222222222222222222222222222222222222222222223<<#........................................................................    ",
"<22<22222222222222222222222222222222222222222222222222222222222222223<<#........................................................................    ",
"<23<22222222222222222222222222222222222222222222222222222222222222223<<#........................................................................    ",
"<23<22222222222222222222222222222222222222222222222222222222222222223<<#........................................................................    ",
"<23<22222222222222222222222222222222222222222222222222222222222222223<<#........................................................................    ",
"<23<22222222222222222222222222222222222222222222222222222222222222223<<#........................................................................    ",
"<23<2222222222222222222222222222222222222222222222222222222222222222<5>@........................................................................    ",
"<23<2222222222222222222222222222222222222222222222222222222222222222<5>@........................................................................    ",
"<23<2222222222222222222222222222222222222222222222222222222222222222<5>@........................................................................    ",
"<23<2222222222222222222222222222222222222222222222222222222222222222<5>@........................................................................    ",
"<23<2222222222222222222222222222222222222222222222222222222222222222<5>@........................................................................    ",
"<23<22222222222222222222222222222222222222222222222222222222222222223<<#........................................................................    ",
"<23<22222222222222222222222222222222222222222222222222222222222222223<<#........................................................................    ",
"<23<22222222222222222222222222222222222222222222222222222222222222223<<#........................................................................    ",
"<23<22222222222222222222222222222222222222222222222222222222222222223<<#........................................................................    ",
"<23<22222222222222222222222222222222222222222222222222222222222222223<<#........................................................................    ",
"<23<22222222222222222222222222222222222222222222222222222222222222223<<#........................................................................    ",
"<23<22222222222222222222222222222222222222222222222222222222222222223<<#........................................................................    ",
"<23<22222222222222222222222222222222222222222222222222222222222222223<<#........................................................................    ",
"<23<22222222222222222222222222222222222222222222222222222222222222223<<#........................................................................    ",
">23<222222222222222222222222222222222222222222222222222222222222222232<#........................................................................    ",
":<4222222222<<<<<<<<<<<<<<<<<<<<<<<<22222222<<<<<<<<<<<<<<<<<<<<<<<<>6<O........................................................................    ",
"133<2222222222222222222222222222222222222222222222222222222222222222:6<@........................................................................    "
};
