/* XPM */
static char *_44c8ce114b0441a8aa8747f9619b715wvCaOHiYrnJa4Zzg[] = {
/* columns rows colors chars-per-pixel */
"64 64 4 1 ",
"  c None",
". c black",
"X c gray33",
"o c #948F94",
/* pixels */
"                                                                ",
"                                                                ",
"                                                                ",
"                                                                ",
"                                                                ",
"                                                                ",
"                                                                ",
"                                                                ",
"                                                                ",
"                                                                ",
"                                                                ",
"                                                                ",
"                                                                ",
"                                                                ",
"                                                                ",
"                                                                ",
"                ............................                    ",
"                .oooooooooooooooooooooooooo.                    ",
"                .oooooooooooooooooooooooooo.                    ",
"                .oooooooooooooooooooooooooo.                    ",
"                .oooooooooooooooooooooooooo.                    ",
"                .oooooooooooooooooooooooooo.                    ",
"                .oooooooooooooooooooooooooo.                    ",
"                .ooooooooooooooooo........o.                    ",
"                .ooooooooooooooooo........o.                    ",
"                .ooooooooooooooooo........o.                    ",
"                .ooooooooooooooooo........o.                    ",
"                .ooooooooooooooooo........o.                    ",
"                .ooooooooooooooooooXXXooooo.                    ",
"                .ooooooooooooooooooXXXooooo.                    ",
"                .ooooooooooooooooooXXXooooo.                    ",
"                .ooooooooooooooooooXXXooooo.                    ",
"                .ooooooooooooooooooXXXooooo.                    ",
"                ......oooooooooooooXXX......                    ",
"                     .oooooooooooooXXX.                         ",
"                     .oooooooooooooXXX.                         ",
"                     .oooooooooooooXXX.                         ",
"                     .oooooooooooooXXX.                         ",
"                     .oooooooooooooXXX.                         ",
"                     .oooooooooooooXXX.                         ",
"                     .oooooooooooooXXX.                         ",
"                     .oooooooooooooXXX.                         ",
"                     .oooooooooooooXXX.                         ",
"                     .oooooooooooooXXX.                         ",
"                     .oooooooooooooXXX.                         ",
"                     .oooooooooooooXXX.                         ",
"                     .oooooooooooooXXX.                         ",
"                     .oooooooooooooXXX.                         ",
"                     .oooooooooooooXXX.                         ",
"                     .oooooo....oooXXX.                         ",
"                     .oooooo.  .oooXXX.                         ",
"                     .oooooo.  .oooXXX.                         ",
"                     .oooooo.  .oooXXX.                         ",
"                     .oooooo.  .oooXXX.                         ",
"                     .oooooo.  .oooXXX.                         ",
"                     .oooooo.  .oooXXX.                         ",
"                     .oooooo.  .oooXXX.                         ",
"                     .oooooo.  .oooXXX.                         ",
"                     .oooooo.  .oooXXX.                         ",
"                     ........  ........                         ",
"                                                                ",
"                                                                ",
"                                                                ",
"                                                                "
};
