/* XPM */
static char *_2fc8df1025e4dbfb8b654de52e8c02bl9jwa80TxFfHPfV0[] = {
/* columns rows colors chars-per-pixel */
"64 64 4 1 ",
"  c black",
". c gray33",
"X c #5A5D82",
"o c #948F94",
/* pixels */
"                       XXXXXXXXXXXXXXXXXXXXXX                   ",
"                       XXXXXXXXXXXXXXXXXXXXXX                   ",
"                       XXXXXXXXXXXXXXXXXXXXXX                   ",
"                       XXXXXXXXXXXXXXXXXXXXXX                   ",
"                       XXXXXXXXXXXXXXXXXXXXXX                   ",
"                       XXXXXXXXXXXXXXXXXXXXXX                   ",
"                       XXXXXXXXXXXXXXXXXXXXXX                   ",
"                       XXXXXXXXXXXXXXXXXXXXXX                   ",
"                       XXXXXXXXXXXXXXXXXXXXXX                   ",
"                       XXXXXXXXXXXXXXXXXXXXXX                   ",
"                       XXXXXXXXXXXXXXXXXXXXXX                   ",
"                                                                ",
"                     oooooooooooooooooooooooooo                 ",
"                     oooooooooooooooooooooooooo                 ",
"                     oooooooooooooooooooooooooo                 ",
"                     oooooooooooooooooooooooooo                 ",
"XXXXXXXXXXXXXXXXXXXX oooooooooooooooooooooooooo XXXXXXXXXXXXXXXX",
"XXXXXXXXXXXXXXXXXXXX oooooooooooooooooooooooooo XXXXXXXXXXXXXXXX",
"XXXXXXXXXXXXXXXXXXXX o        ooooooooooooooooo XXXXXXXXXXXXXXXX",
"XXXXXXXXXXXXXXXXXXXX o        ooooooooooooooooo XXXXXXXXXXXXXXXX",
"XXXXXXXXXXXXXXXXXXXX o        ooooooooooooooooo XXXXXXXXXXXXXXXX",
"XXXXXXXXXXXXXXXXXXXX o        ooooooooooooooooo XXXXXXXXXXXXXXXX",
"XXXXXXXXXXXXXXXXXXXX o        ooooooooooooooooo XXXXXXXXXXXXXXXX",
"XXXXXXXXXXXXXXXXXXXX ooooo...oooooooooooooooooo XXXXXXXXXXXXXXXX",
"XXXXXXXXXXXXXXXXXXXX ooooo...oooooooooooooooooo XXXXXXXXXXXXXXXX",
"XXXXXXXXXXXXXXXXXXXX ooooo...oooooooooooooooooo XXXXXXXXXXXXXXXX",
"XXXXXXXXXXXXXXXXXXXX ooooo...oooooooooooooooooo XXXXXXXXXXXXXXXX",
"XXXXXXXXXXXXXXXXXXXX ooooo...oooooooooooooooooo XXXXXXXXXXXXXXXX",
"XXXXXXXXXXXXXXXXXXXX      ...ooooooooooooo      XXXXXXXXXXXXXXXX",
"XXXXXXXXXXXXXXXXXXXXXXX   ...ooooooooooooo   XXXXXXXXXXXXXXXXXXX",
"XXXXXXXXXXXXXXXXXXXXXXX   ...ooooooooooooo   XXXXXXXXXXXXXXXXXXX",
"                       XX ...ooooooooooooo XX                   ",
"                       XX ...ooooooooooooo XX                   ",
"                       XX ...ooooooooooooo XX                   ",
"                       XX ...ooooooooooooo XX                   ",
"                       XX ...ooooooooooooo XX                   ",
"                       XX ...ooooooooooooo XX                   ",
"                       XX ...ooooooooooooo XX                   ",
"                       XX ...ooooooooooooo XX                   ",
"                       XX ...ooooooooooooo XX                   ",
"                       XX ...ooooooooooooo XX                   ",
"                       XX ...ooooooooooooo XX                   ",
"                       XX ...ooooooooooooo XX                   ",
"                       XX ...ooooooooooooo XX                   ",
"                       XX ...ooo    oooooo XX                   ",
"                       XX ...ooo XX oooooo XX                   ",
"                       XX ...ooo XX oooooo XX                   ",
"                       XX ...ooo XX oooooo XX                   ",
"XXXXXXXXXXXXXXXXXXXXXXX   ...ooo    oooooo   XXXXXXXXXXXXXXXXXXX",
"XXXXXXXXXXXXXXXXXXXXXXX   ...ooo    oooooo   XXXXXXXXXXXXXXXXXXX",
"XXXXXXXXXXXXXXXXXXXXXXX   ...ooo    oooooo   XXXXXXXXXXXXXXXXXXX",
"XXXXXXXXXXXXXXXXXXXXXXX   ...ooo    oooooo   XXXXXXXXXXXXXXXXXXX",
"XXXXXXXXXXXXXXXXXXXXXXX   ...ooo    oooooo   XXXXXXXXXXXXXXXXXXX",
"XXXXXXXXXXXXXXXXXXXXXXX   ...ooo    oooooo   XXXXXXXXXXXXXXXXXXX",
"XXXXXXXXXXXXXXXXXXXXXXX                      XXXXXXXXXXXXXXXXXXX",
"XXXXXXXXXXXXXXXXXXXXXXX                      XXXXXXXXXXXXXXXXXXX",
"XXXXXXXXXXXXXXXXXXXXXXX                      XXXXXXXXXXXXXXXXXXX",
"XXXXXXXXXXXXXXXXXXXXXXX                      XXXXXXXXXXXXXXXXXXX",
"XXXXXXXXXXXXXXXXXXXXXXX                      XXXXXXXXXXXXXXXXXXX",
"XXXXXXXXXXXXXXXXXXXXXXX                      XXXXXXXXXXXXXXXXXXX",
"XXXXXXXXXXXXXXXXXXXXXXX                      XXXXXXXXXXXXXXXXXXX",
"XXXXXXXXXXXXXXXXXXXXXXX                      XXXXXXXXXXXXXXXXXXX",
"XXXXXXXXXXXXXXXXXXXXXXX                      XXXXXXXXXXXXXXXXXXX",
"XXXXXXXXXXXXXXXXXXXXXXX                      XXXXXXXXXXXXXXXXXXX"
};
