/* XPM */
static char *_04d579387d54104dea4b8e55ba2f459yGuTYrJr9fcmYWF5[] = {
/* columns rows colors chars-per-pixel */
"64 64 4 1 ",
"  c None",
". c black",
"X c gray33",
"o c #948F94",
/* pixels */
"                                                                ",
"                                                                ",
"                                                                ",
"                                                                ",
"                                                                ",
"                                                                ",
"                                                                ",
"                                                                ",
"                                                                ",
"                                                                ",
"                                                                ",
"                                                                ",
"                                                                ",
"                                                                ",
"                                                                ",
"                                                                ",
"                ............................                    ",
"                .oooooooooooooooooooooooooo.                    ",
"                .oooooooooooooooooooooooooo.                    ",
"                .oooooooooooooooooooooooooo.                    ",
"                .oooooooooooooooooooooooooo.                    ",
"                .oooooooooooooooooooooooooo.                    ",
"                .oooooooooooooooooooooooooo.                    ",
"                .o........ooooooooooooooooo.                    ",
"                .o........ooooooooooooooooo.                    ",
"                .o........ooooooooooooooooo.                    ",
"                .o........ooooooooooooooooo.                    ",
"                .o........ooooooooooooooooo.                    ",
"                .oooooXXXoooooooooooooooooo.                    ",
"                .oooooXXXoooooooooooooooooo.                    ",
"                .oooooXXXoooooooooooooooooo.                    ",
"                .oooooXXXoooooooooooooooooo.                    ",
"                .oooooXXXoooooooooooooooooo.                    ",
"                ......XXXooooooooooooo......                    ",
"                     .XXXooooooooooooo.                         ",
"                     .XXXooooooooooooo.                         ",
"                     .XXXooooooooooooo.                         ",
"                     .XXXooooooooooooo.                         ",
"                     .XXXooooooooooooo.                         ",
"                     .XXXooooooooooooo.                         ",
"                     .XXXooooooooooooo.                         ",
"                     .XXXooooooooooooo.                         ",
"                     .XXXooooooooooooo.                         ",
"                     .XXXooooooooooooo.                         ",
"                     .XXXooooooooooooo.                         ",
"                     .XXXooooooooooooo.                         ",
"                     .XXXooooooooooooo.                         ",
"                     .XXXooooooooooooo.                         ",
"                     .XXXooooooooooooo.                         ",
"                     .XXXooo....oooooo.                         ",
"                     .XXXooo.  .oooooo.                         ",
"                     .XXXooo.  .oooooo.                         ",
"                     .XXXooo.  .oooooo.                         ",
"                     .XXXooo.  .oooooo.                         ",
"                     .XXXooo.  .oooooo.                         ",
"                     .XXXooo.  .oooooo.                         ",
"                     .XXXooo.  .oooooo.                         ",
"                     .XXXooo.  .oooooo.                         ",
"                     .XXXooo.  .oooooo.                         ",
"                     ........  ........                         ",
"                                                                ",
"                                                                ",
"                                                                ",
"                                                                "
};
