/* XPM */
static char *_eae56c71b0e46aaad32a865260f7933Si1L1hnZr2X0J32D[] = {
/* columns rows colors chars-per-pixel */
"64 64 4 1 ",
"  c black",
". c gray33",
"X c #5A5D82",
"o c #948F94",
/* pixels */
"                       XXXXXXXXXXXXXXXXXXXXXX                   ",
"                       XXXXXXXXXXXXXXXXXXXXXX                   ",
"                       XXXXXXXXXXXXXXXXXXXXXX                   ",
"                       XXXXXXXXXXXXXXXXXXXXXX                   ",
"                       XXXXXXXXXXXXXXXXXXXXXX                   ",
"                       XXXXXXXXXXXXXXXXXXXXXX                   ",
"                       XXXXXXXXXXXXXXXXXXXXXX                   ",
"                       XXXXXXXXXXXXXXXXXXXXXX                   ",
"                       XXXXXXXXXXXXXXXXXXXXXX                   ",
"                       XXXXXXXXXXXXXXXXXXXXXX                   ",
"                       XXXXXXXXXXXXXXXXXXXXXX                   ",
"                                                                ",
"                     oooooooooooooooooooooooooo                 ",
"                     oooooooooooooooooooooooooo                 ",
"                     oooooooooooooooooooooooooo                 ",
"                     oooooooooooooooooooooooooo                 ",
"XXXXXXXXXXXXXXXXXXXX oooooooooooooooooooooooooo XXXXXXXXXXXXXXXX",
"XXXXXXXXXXXXXXXXXXXX oooooooooooooooooooooooooo XXXXXXXXXXXXXXXX",
"XXXXXXXXXXXXXXXXXXXX ooo        oooo        ooo XXXXXXXXXXXXXXXX",
"XXXXXXXXXXXXXXXXXXXX ooo        oooo        ooo XXXXXXXXXXXXXXXX",
"XXXXXXXXXXXXXXXXXXXX ooo        oooo        ooo XXXXXXXXXXXXXXXX",
"XXXXXXXXXXXXXXXXXXXX ooo        oooo        ooo XXXXXXXXXXXXXXXX",
"XXXXXXXXXXXXXXXXXXXX ooo        oooo        ooo XXXXXXXXXXXXXXXX",
"XXXXXXXXXXXXXXXXXXXX ooooo...oooooooooo...ooooo XXXXXXXXXXXXXXXX",
"XXXXXXXXXXXXXXXXXXXX ooooo...oooooooooo...ooooo XXXXXXXXXXXXXXXX",
"XXXXXXXXXXXXXXXXXXXX ooooo...oooooooooo...ooooo XXXXXXXXXXXXXXXX",
"XXXXXXXXXXXXXXXXXXXX ooooo...oooooooooo...ooooo XXXXXXXXXXXXXXXX",
"XXXXXXXXXXXXXXXXXXXX ooooo...oooooooooo...ooooo XXXXXXXXXXXXXXXX",
"XXXXXXXXXXXXXXXXXXXX      ...oooooooooo...      XXXXXXXXXXXXXXXX",
"XXXXXXXXXXXXXXXXXXXXXXX   ...oooooooooo...   XXXXXXXXXXXXXXXXXXX",
"XXXXXXXXXXXXXXXXXXXXXXX   ...oooooooooo...   XXXXXXXXXXXXXXXXXXX",
"                       XX ...oooooooooo... XX                   ",
"                       XX ...oooooooooo... XX                   ",
"                       XX ...oooooooooo... XX                   ",
"                       XX ...oooooooooo... XX                   ",
"                       XX ...oooooooooo... XX                   ",
"                       XX ...oooooooooo... XX                   ",
"                       XX ...oooooooooo... XX                   ",
"                       XX ...oooooooooo... XX                   ",
"                       XX ...oooooooooo... XX                   ",
"                       XX ...oooooooooo... XX                   ",
"                       XX ...oooooooooo... XX                   ",
"                       XX ...oooooooooo... XX                   ",
"                       XX ...oooooooooo... XX                   ",
"                       XX ...ooo    ooo... XX                   ",
"                       XX ...ooo XX ooo... XX                   ",
"                       XX ...ooo XX ooo... XX                   ",
"                       XX ...ooo XX ooo... XX                   ",
"XXXXXXXXXXXXXXXXXXXXXXX   ...ooo    ooo...   XXXXXXXXXXXXXXXXXXX",
"XXXXXXXXXXXXXXXXXXXXXXX   ...ooo    ooo...   XXXXXXXXXXXXXXXXXXX",
"XXXXXXXXXXXXXXXXXXXXXXX   ...ooo    ooo...   XXXXXXXXXXXXXXXXXXX",
"XXXXXXXXXXXXXXXXXXXXXXX   ...ooo    ooo...   XXXXXXXXXXXXXXXXXXX",
"XXXXXXXXXXXXXXXXXXXXXXX   ...ooo    ooo...   XXXXXXXXXXXXXXXXXXX",
"XXXXXXXXXXXXXXXXXXXXXXX   ...ooo    ooo...   XXXXXXXXXXXXXXXXXXX",
"XXXXXXXXXXXXXXXXXXXXXXX                      XXXXXXXXXXXXXXXXXXX",
"XXXXXXXXXXXXXXXXXXXXXXX                      XXXXXXXXXXXXXXXXXXX",
"XXXXXXXXXXXXXXXXXXXXXXX                      XXXXXXXXXXXXXXXXXXX",
"XXXXXXXXXXXXXXXXXXXXXXX                      XXXXXXXXXXXXXXXXXXX",
"XXXXXXXXXXXXXXXXXXXXXXX                      XXXXXXXXXXXXXXXXXXX",
"XXXXXXXXXXXXXXXXXXXXXXX                      XXXXXXXXXXXXXXXXXXX",
"XXXXXXXXXXXXXXXXXXXXXXX                      XXXXXXXXXXXXXXXXXXX",
"XXXXXXXXXXXXXXXXXXXXXXX                      XXXXXXXXXXXXXXXXXXX",
"XXXXXXXXXXXXXXXXXXXXXXX                      XXXXXXXXXXXXXXXXXXX",
"XXXXXXXXXXXXXXXXXXXXXXX                      XXXXXXXXXXXXXXXXXXX"
};
