/* XPM */
static char *result[] = {
/* columns rows colors chars-per-pixel */
"64 64 4 1 ",
"  c black",
". c gray33",
"X c #948F94",
"o c None",
/* pixels */
"oooooooooooooooooooooooooooooooooooooooooooooooooooooooooooooooo",
"oooooooooooooooooooooooooooooooooooooooooooooooooooooooooooooooo",
"oooooooooooooooooooooooooooooooooooooooooooooooooooooooooooooooo",
"oooooooooooooooooooooooooooooooooooooooooooooooooooooooooooooooo",
"oooooooooooooooooooooooooooooooooooooooooooooooooooooooooooooooo",
"oooooooooooooooooooooooooooooooooooooooooooooooooooooooooooooooo",
"oooooooooooooooooooooooooooooooooooooooooooooooooooooooooooooooo",
"oooooooooooooooooooooooooooooooooooooooooooooooooooooooooooooooo",
"oooooooooooooooooooooooooooooooooooooooooooooooooooooooooooooooo",
"oooooooooooooooooooooooooooooooooooooooooooooooooooooooooooooooo",
"oooooooooooooooooooooooooooooooooooooooooooooooooooooooooooooooo",
"oooooooooooooooooooooooooooooooooooooooooooooooooooooooooooooooo",
"oooooooooooooooooooooooooooooooooooooooooooooooooooooooooooooooo",
"oooooooooooooooooooooooooooooooooooooooooooooooooooooooooooooooo",
"oooooooooooooooooooooooooooooooooooooooooooooooooooooooooooooooo",
"oooooooooooooooooooooooooooooooooooooooooooooooooooooooooooooooo",
"oooooooooooooooo                            oooooooooooooooooooo",
"oooooooooooooooo XXXXXXXXXXXXXXXXXXXXXXXXXX oooooooooooooooooooo",
"oooooooooooooooo XXXXXXXXXXXXXXXXXXXXXXXXXX oooooooooooooooooooo",
"oooooooooooooooo XXXXXXXXXXXXXXXXXXXXXXXXXX oooooooooooooooooooo",
"oooooooooooooooo XXXXXXXXXXXXXXXXXXXXXXXXXX oooooooooooooooooooo",
"oooooooooooooooo XXXXXXXXXXXXXXXXXXXXXXXXXX oooooooooooooooooooo",
"oooooooooooooooo XXXXXXXXXXXXXXXXXXXXXXXXXX oooooooooooooooooooo",
"oooooooooooooooo XXX        XXXX        XXX oooooooooooooooooooo",
"oooooooooooooooo XXX        XXXX        XXX oooooooooooooooooooo",
"oooooooooooooooo XXX        XXXX        XXX oooooooooooooooooooo",
"oooooooooooooooo XXX        XXXX        XXX oooooooooooooooooooo",
"oooooooooooooooo XXX        XXXX        XXX oooooooooooooooooooo",
"oooooooooooooooo XXXXX...XXXXXXXXXX...XXXXX oooooooooooooooooooo",
"oooooooooooooooo XXXXX...XXXXXXXXXX...XXXXX oooooooooooooooooooo",
"oooooooooooooooo XXXXX...XXXXXXXXXX...XXXXX oooooooooooooooooooo",
"oooooooooooooooo XXXXX...XXXXXXXXXX...XXXXX oooooooooooooooooooo",
"oooooooooooooooo XXXXX...XXXXXXXXXX...XXXXX oooooooooooooooooooo",
"oooooooooooooooo      ...XXXXXXXXXX...      oooooooooooooooooooo",
"ooooooooooooooooooooo ...XXXXXXXXXX... ooooooooooooooooooooooooo",
"ooooooooooooooooooooo ...XXXXXXXXXX... ooooooooooooooooooooooooo",
"ooooooooooooooooooooo ...XXXXXXXXXX... ooooooooooooooooooooooooo",
"ooooooooooooooooooooo ...XXXXXXXXXX... ooooooooooooooooooooooooo",
"ooooooooooooooooooooo ...XXXXXXXXXX... ooooooooooooooooooooooooo",
"ooooooooooooooooooooo ...XXXXXXXXXX... ooooooooooooooooooooooooo",
"ooooooooooooooooooooo ...XXXXXXXXXX... ooooooooooooooooooooooooo",
"ooooooooooooooooooooo ...XXXXXXXXXX... ooooooooooooooooooooooooo",
"ooooooooooooooooooooo ...XXXXXXXXXX... ooooooooooooooooooooooooo",
"ooooooooooooooooooooo ...XXXXXXXXXX... ooooooooooooooooooooooooo",
"ooooooooooooooooooooo ...XXXXXXXXXX... ooooooooooooooooooooooooo",
"ooooooooooooooooooooo ...XXXXXXXXXX... ooooooooooooooooooooooooo",
"ooooooooooooooooooooo ...XXXXXXXXXX... ooooooooooooooooooooooooo",
"ooooooooooooooooooooo ...XXXXXXXXXX... ooooooooooooooooooooooooo",
"ooooooooooooooooooooo ...XXXXXXXXXX... ooooooooooooooooooooooooo",
"ooooooooooooooooooooo ...XXX    XXX... ooooooooooooooooooooooooo",
"ooooooooooooooooooooo ...XXX oo XXX... ooooooooooooooooooooooooo",
"ooooooooooooooooooooo ...XXX oo XXX... ooooooooooooooooooooooooo",
"ooooooooooooooooooooo ...XXX oo XXX... ooooooooooooooooooooooooo",
"ooooooooooooooooooooo ...XXX oo XXX... ooooooooooooooooooooooooo",
"ooooooooooooooooooooo ...XXX oo XXX... ooooooooooooooooooooooooo",
"ooooooooooooooooooooo ...XXX oo XXX... ooooooooooooooooooooooooo",
"ooooooooooooooooooooo ...XXX oo XXX... ooooooooooooooooooooooooo",
"ooooooooooooooooooooo ...XXX oo XXX... ooooooooooooooooooooooooo",
"ooooooooooooooooooooo ...XXX oo XXX... ooooooooooooooooooooooooo",
"ooooooooooooooooooooo        oo        ooooooooooooooooooooooooo",
"oooooooooooooooooooooooooooooooooooooooooooooooooooooooooooooooo",
"oooooooooooooooooooooooooooooooooooooooooooooooooooooooooooooooo",
"oooooooooooooooooooooooooooooooooooooooooooooooooooooooooooooooo",
"oooooooooooooooooooooooooooooooooooooooooooooooooooooooooooooooo"
};
