/* XPM */
static char *_6d4ea7c177b46a0d1f117e3e0fc03aeKCQ2UWTozcgXWMHY[] = {
/* columns rows colors chars-per-pixel */
"64 64 4 1 ",
"  c black",
". c gray33",
"X c #5A5D82",
"o c #948F94",
/* pixels */
"                       XXXXXXXXXXXXXXXXXXXXXX                   ",
"                       XXXXXXXXXXXXXXXXXXXXXX                   ",
"                       XXXXXXXXXXXXXXXXXXXXXX                   ",
"                       XXXXXXXXXXXXXXXXXXXXXX                   ",
"                       XXXXXXXXXXXXXXXXXXXXXX                   ",
"                       XXXXXXXXXXXXXXXXXXXXXX                   ",
"                       XXXXXXXXXXXXXXXXXXXXXX                   ",
"                       XXXXXXXXXXXXXXXXXXXXXX                   ",
"                       XXXXXXXXXXXXXXXXXXXXXX                   ",
"                       XXXXXXXXXXXXXXXXXXXXXX                   ",
"                                                                ",
"                     oooooooooooooooooooooooooo                 ",
"                     oooooooooooooooooooooooooo                 ",
"                     oooooooooooooooooooooooooo                 ",
"                     oooooooooooooooooooooooooo                 ",
"                     oooooooooooooooooooooooooo                 ",
"XXXXXXXXXXXXXXXXXXXX oooooooooooooooooooooooooo XXXXXXXXXXXXXXXX",
"XXXXXXXXXXXXXXXXXXXX ooooooooooooooooo        o XXXXXXXXXXXXXXXX",
"XXXXXXXXXXXXXXXXXXXX ooooooooooooooooo        o XXXXXXXXXXXXXXXX",
"XXXXXXXXXXXXXXXXXXXX ooooooooooooooooo        o XXXXXXXXXXXXXXXX",
"XXXXXXXXXXXXXXXXXXXX ooooooooooooooooo        o XXXXXXXXXXXXXXXX",
"XXXXXXXXXXXXXXXXXXXX ooooooooooooooooo        o XXXXXXXXXXXXXXXX",
"XXXXXXXXXXXXXXXXXXXX oooooooooooooooooo...ooooo XXXXXXXXXXXXXXXX",
"XXXXXXXXXXXXXXXXXXXX oooooooooooooooooo...ooooo XXXXXXXXXXXXXXXX",
"XXXXXXXXXXXXXXXXXXXX oooooooooooooooooo...ooooo XXXXXXXXXXXXXXXX",
"XXXXXXXXXXXXXXXXXXXX oooooooooooooooooo...ooooo XXXXXXXXXXXXXXXX",
"XXXXXXXXXXXXXXXXXXXX oooooooooooooooooo...ooooo XXXXXXXXXXXXXXXX",
"XXXXXXXXXXXXXXXXXXXX      ooooooooooooo...      XXXXXXXXXXXXXXXX",
"XXXXXXXXXXXXXXXXXXXXXXX   ooooooooooooo...   XXXXXXXXXXXXXXXXXXX",
"XXXXXXXXXXXXXXXXXXXXXXX   ooooooooooooo...   XXXXXXXXXXXXXXXXXXX",
"XXXXXXXXXXXXXXXXXXXXXXX   ooooooooooooo...   XXXXXXXXXXXXXXXXXXX",
"                       XX ooooooooooooo... XX                   ",
"                       XX ooooooooooooo... XX                   ",
"                       XX ooooooooooooo... XX                   ",
"                       XX ooooooooooooo... XX                   ",
"                       XX ooooooooooooo... XX                   ",
"                       XX ooooooooooooo... XX                   ",
"                       XX ooooooooooooo... XX                   ",
"                       XX ooooooooooooo... XX                   ",
"                       XX ooooooooooooo... XX                   ",
"                       XX ooooooooooooo... XX                   ",
"                       XX ooooooooooooo... XX                   ",
"                       XX ooooooooooooo... XX                   ",
"                       XX oooooo    ooo... XX                   ",
"                       XX oooooo XX ooo... XX                   ",
"                       XX oooooo XX ooo... XX                   ",
"                       XX oooooo XX ooo... XX                   ",
"                       XX oooooo XX ooo... XX                   ",
"XXXXXXXXXXXXXXXXXXXXXXX   oooooo    ooo...   XXXXXXXXXXXXXXXXXXX",
"XXXXXXXXXXXXXXXXXXXXXXX   oooooo    ooo...   XXXXXXXXXXXXXXXXXXX",
"XXXXXXXXXXXXXXXXXXXXXXX   oooooo    ooo...   XXXXXXXXXXXXXXXXXXX",
"XXXXXXXXXXXXXXXXXXXXXXX   oooooo    ooo...   XXXXXXXXXXXXXXXXXXX",
"XXXXXXXXXXXXXXXXXXXXXXX   oooooo    ooo...   XXXXXXXXXXXXXXXXXXX",
"XXXXXXXXXXXXXXXXXXXXXXX                      XXXXXXXXXXXXXXXXXXX",
"XXXXXXXXXXXXXXXXXXXXXXX                      XXXXXXXXXXXXXXXXXXX",
"XXXXXXXXXXXXXXXXXXXXXXX                      XXXXXXXXXXXXXXXXXXX",
"XXXXXXXXXXXXXXXXXXXXXXX                      XXXXXXXXXXXXXXXXXXX",
"XXXXXXXXXXXXXXXXXXXXXXX                      XXXXXXXXXXXXXXXXXXX",
"XXXXXXXXXXXXXXXXXXXXXXX                      XXXXXXXXXXXXXXXXXXX",
"XXXXXXXXXXXXXXXXXXXXXXX                      XXXXXXXXXXXXXXXXXXX",
"XXXXXXXXXXXXXXXXXXXXXXX                      XXXXXXXXXXXXXXXXXXX",
"XXXXXXXXXXXXXXXXXXXXXXX                      XXXXXXXXXXXXXXXXXXX",
"XXXXXXXXXXXXXXXXXXXXXXX                      XXXXXXXXXXXXXXXXXXX",
"XXXXXXXXXXXXXXXXXXXXXXX                      XXXXXXXXXXXXXXXXXXX"
};
