/* XPM */
static char *result[] = {
/* columns rows colors chars-per-pixel */
"64 64 3 1 ",
"  c black",
". c #5A5D82",
"X c #948F94",
/* pixels */
"                       ......................                   ",
"                       ......................                   ",
"                       ......................                   ",
"                       ......................                   ",
"                       ......................                   ",
"                       ......................                   ",
"                       ......................                   ",
"                       ......................                   ",
"                       ......................                   ",
"                       ......................                   ",
"                       ......................                   ",
"                                                                ",
"                     XXXXXXXXXXXXXXXXXXXXXXXXXX                 ",
"                     XXXXXXXXXXXXXXXXXXXXXXXXXX                 ",
"                     XXXXXXXXXXXXXXXXXXXXXXXXXX                 ",
"                     XXXXXXXXXXXXXXXXXXXXXXXXXX                 ",
".................... XXXXXXXXXXXXXXXXXXXXXXXXXX ................",
".................... XXXXXXXXXXXXXXXXXXXXXXXXXX ................",
".................... XXXXXXXXXXXXXXXXXXXXXXXXXX ................",
".................... XXXXXXXXXXXXXXXXXXXXXXXXXX ................",
".................... XXXXXXXXXXXXXXXXXXXXXXXXXX ................",
".................... XXXXXXXXXXXXXXXXXXXXXXXXXX ................",
".................... XXXXXXXXXXXXXXXXXXXXXXXXXX ................",
".................... XXXXXXXXXXXXXXXXXXXXXXXXXX ................",
".................... XXXXXXXXXXXXXXXXXXXXXXXXXX ................",
".................... XXXXXXXXXXXXXXXXXXXXXXXXXX ................",
".................... XXXXXXXXXXXXXXXXXXXXXXXXXX ................",
".................... XXXXXXXXXXXXXXXXXXXXXXXXXX ................",
"....................      XXXXXXXXXXXXXXXX      ................",
".......................   XXXXXXXXXXXXXXXX   ...................",
".......................   XXXXXXXXXXXXXXXX   ...................",
"                       .. XXXXXXXXXXXXXXXX ..                   ",
"                       .. XXXXXXXXXXXXXXXX ..                   ",
"                       .. XXXXXXXXXXXXXXXX ..                   ",
"                       .. XXXXXXXXXXXXXXXX ..                   ",
"                       .. XXXXXXXXXXXXXXXX ..                   ",
"                       .. XXXXXXXXXXXXXXXX ..                   ",
"                       .. XXXXXXXXXXXXXXXX ..                   ",
"                       .. XXXXXXXXXXXXXXXX ..                   ",
"                       .. XXXXXXXXXXXXXXXX ..                   ",
"                       .. XXXXXXXXXXXXXXXX ..                   ",
"                       .. XXXXXXXXXXXXXXXX ..                   ",
"                       .. XXXXXXXXXXXXXXXX ..                   ",
"                       .. XXXXXXXXXXXXXXXX ..                   ",
"                       .. XXXXXX    XXXXXX ..                   ",
"                       .. XXXXXX .. XXXXXX ..                   ",
"                       .. XXXXXX .. XXXXXX ..                   ",
"                       .. XXXXXX .. XXXXXX ..                   ",
".......................   XXXXXX    XXXXXX   ...................",
".......................   XXXXXX    XXXXXX   ...................",
".......................   XXXXXX    XXXXXX   ...................",
".......................   XXXXXX    XXXXXX   ...................",
".......................   XXXXXX    XXXXXX   ...................",
".......................   XXXXXX    XXXXXX   ...................",
".......................                      ...................",
".......................                      ...................",
".......................                      ...................",
".......................                      ...................",
".......................                      ...................",
".......................                      ...................",
".......................                      ...................",
".......................                      ...................",
".......................                      ...................",
".......................                      ..................."
};
