/* XPM */
static char *_89be79eae204ce3a47064cea242f72aX7d6swAE1J0PM8mh[] = {
/* columns rows colors chars-per-pixel */
"64 64 5 1 ",
"  c black",
". c #FFD900",
"X c #5A5D82",
"o c #890BB3",
"O c white",
/* pixels */
"                       XXXXXXXXXXXXXXXXXXXXXX                   ",
"                       XXXXXXXXXXXXXXXXXXXXXX                   ",
"                       XXXXXXXXXXXXXXXXXXXXXX                   ",
"                                   XXXXXXXXXX                   ",
"                     oooooooooooooo XXXXXXXXX                   ",
"                    oooooooooooooooo XXXXXXXX                   ",
"                    oo     oo     oo XXXXXXXX                   ",
"                    oo OOO oo OOO oo XXXXXXXX                   ",
"                    oooOOOooooOOOooo XXXXXXXX                   ",
"                    oooooooooooooooo XXXXXXXX                   ",
"                    oooooooooooooooo XXXXXXXX                   ",
"                    oo           ooo                            ",
"                    ooo         oooooooooooooo                  ",
"                    ooo         oooooooooooooo                  ",
"                     ooooooooooooooooooooooooo                  ",
"                              oooooooooooooooo                  ",
"XXXXXXXXXXXXXXXXXXXXXXX       ooooooooo.....oo XXXXXXXXXXXXXXXXX",
"XXXXXXXXXXXXXXXXXXXXXXX       ooooooooo.....oo XXXXXXXXXXXXXXXXX",
"XXXXXXXXXXXXXXXXXXXXXXX       oooooooooo...ooo XXXXXXXXXXXXXXXXX",
"XXXXXXXXXXX                   oooooooooo...ooo XXXXXXXXXXXXXXXXX",
"XXXXXXXXXXX oooooooooooooooooooooooooooooooooo XXXXXXXXXXXXXXXXX",
"XXXXXXXXXXX oooooooooooooooooooooooooooooooooo XXXXXXXXXXXXXXXXX",
"XXXXXXXXXXX oooooooooooooooooooooooooooooooooo XXXXXXXXXXXXXXXXX",
"XXXXXXXXXXX oooooooooooooooooooooooooooooooooo XXXXXXXXXXXXXXXXX",
"XXXXXXXXXXX                    ooooooooooooooo XXXXXXXXXXXXXXXXX",
"XXXXXXXXXXXXXXXXXXXXXXX        ooooooooooooooo XXXXXXXXXXXXXXXXX",
"XXXXXXXXXXX                    ooooooooooooooo XXXXXXXXXXXXXXXXX",
"XXXXXXXXXXX oooooooooooooooooooooooooooooooooo XXXXXXXXXXXXXXXXX",
"XXXXXXXXXXX oooooooooooooooooooooooooooooooooo XXXXXXXXXXXXXXXXX",
"XXXXXXXXXXX oooooooooooooooooooooooooooooooooo XXXXXXXXXXXXXXXXX",
"XXXXXXXXXXX oooooooooooooooooooooooooooooooooo XXXXXXXXXXXXXXXXX",
"                               ooooooooooooooo                  ",
"                       XXXXXXX ooooooooooooooo                  ",
"                       XXXXXXX ooooooooooooooo                  ",
"                       XXXXXXX ooooooooooooooo                  ",
"                       XXXXXXX ooooooooooooooo                  ",
"                       XXXXXXX ooooooooooooooo                  ",
"                       XXXXXXX ooooooooooooooo                  ",
"                       XXXXXXX ooooooooooooooo                  ",
"                       XXXXXXX ooooo     ooooo                  ",
"                       XXXXXXX ooooo XXX ooooo                  ",
"                       XXXXXXX ooooo XXX ooooo                  ",
"                       XXXXXXX ooooo XXX ooooo                  ",
"                       XXXXXXX ooooo XXX ooooo                  ",
"                       XXXXXXX ooooo XXX ooooo                  ",
"                       XXXXXXX ooooo XXX ooooo                  ",
"                       XXXXXXX ooooo XXX ooooo                  ",
"                       XXXXXXX ooooo XXX ooooo                  ",
"XXXXXXXXXXXXXXXXXXXXXXX        ooooo     ooooo XXXXXXXXXXXXXXXXX",
"XXXXXXXXXXXXXXXXXXXXXXX        ooooo     ooooo XXXXXXXXXXXXXXXXX",
"XXXXXXXXXXXXXXXXXXXXXXX        ooooo     ooooo XXXXXXXXXXXXXXXXX",
"XXXXXXXXXXXXXXXXXXXXXXX        ooooo     ooooo XXXXXXXXXXXXXXXXX",
"XXXXXXXXXXXXXXXXXXXXXXX        ooooo     ooooo  XXXXXXXXXXXXXXXX",
"XXXXXXXXXXXXXXXXXXXXXXX       ooooooo   ooooooo XXXXXXXXXXXXXXXX",
"XXXXXXXXXXXXXXXXXXXXXXX       ooooooo   ooooooo XXXXXXXXXXXXXXXX",
"XXXXXXXXXXXXXXXXXXXXXXX       ooooooo   ooooooo XXXXXXXXXXXXXXXX",
"XXXXXXXXXXXXXXXXXXXXXXX       ooooooo   ooooooo XXXXXXXXXXXXXXXX",
"XXXXXXXXXXXXXXXXXXXXXXX                         XXXXXXXXXXXXXXXX",
"XXXXXXXXXXXXXXXXXXXXXXX                      XXXXXXXXXXXXXXXXXXX",
"XXXXXXXXXXXXXXXXXXXXXXX                      XXXXXXXXXXXXXXXXXXX",
"XXXXXXXXXXXXXXXXXXXXXXX                      XXXXXXXXXXXXXXXXXXX",
"XXXXXXXXXXXXXXXXXXXXXXX                      XXXXXXXXXXXXXXXXXXX",
"XXXXXXXXXXXXXXXXXXXXXXX                      XXXXXXXXXXXXXXXXXXX",
"XXXXXXXXXXXXXXXXXXXXXXX                      XXXXXXXXXXXXXXXXXXX"
};
