/* XPM */
static char *b6daa54fa661495bb55d6b57047abf1dxvkgnMqmN0kYwJSh[] = {
/* columns rows colors chars-per-pixel */
"64 64 5 1 ",
"  c black",
". c #FFD900",
"X c #5A5D82",
"o c #890BB3",
"O c white",
/* pixels */
"                       XXXXXXXXXXXXXXXXXXXXXX                   ",
"                       XXXXXXXXXXXXXXXXXXXXXX                   ",
"                       XXXXXXXXXXXXXXXXXXXXXX                   ",
"                       XXXXXXXXXXXXXXXXXXXXXX                   ",
"                       XXX             XXXXXX                   ",
"                       XX ooooooooooooo XXXXX                   ",
"                       X ooooooooooooooo XXXX                   ",
"                       X o      o      o XXXX                   ",
"                       X oo OO ooo OO oo XXXX                   ",
"                       X oooOOoooooOOooo XXXX                   ",
"                       X ooooooooooooooo XXXX                   ",
"                       X oooo       oooo XXXX                   ",
"                         ooooo     ooooo   XX                   ",
"                      ooooooooooooooooooooo X                   ",
"                     ooooooooooooooooooooooo                    ",
"                    oooo ooooooooooooooo oooo                   ",
"XXXXXXXXXXXXXXXXXXX oooo ooooooooooooooo oooo XXXXXXXXXXXXXXXXXX",
"XXXXXXXXXXXXXXXXXXX oooo oooooooo.....oo oooo XXXXXXXXXXXXXXXXXX",
"XXXXXXXXXXXXXXXXXXX oooo oooooooo.....oo oooo XXXXXXXXXXXXXXXXXX",
"XXXXXXXXXXXXXXXXXXX oooo ooooooooo...ooo oooo XXXXXXXXXXXXXXXXXX",
"XXXXXXXXXXXXXXXXXXX oooo ooooooooo...ooo oooo XXXXXXXXXXXXXXXXXX",
"XXXXXXXXXXXXXXXXXXX oooo ooooooooooooooo oooo XXXXXXXXXXXXXXXXXX",
"XXXXXXXXXXXXXXXXXXX oooo ooooooooooooooo oooo XXXXXXXXXXXXXXXXXX",
"XXXXXXXXXXXXXXXXXXX oooo ooooooooooooooo oooo XXXXXXXXXXXXXXXXXX",
"XXXXXXXXXXXXXXXXXXX oooo ooooooooooooooo oooo XXXXXXXXXXXXXXXXXX",
"XXXXXXXXXXXXXXXXXXX oooo ooooooooooooooo oooo XXXXXXXXXXXXXXXXXX",
"XXXXXXXXXXXXXXXXXXX oooo ooooooooooooooo oooo XXXXXXXXXXXXXXXXXX",
"XXXXXXXXXXXXXXXXXXX oooo ooooooooooooooo oooo XXXXXXXXXXXXXXXXXX",
"XXXXXXXXXXXXXXXXXXX oooo ooooooooooooooo oooo XXXXXXXXXXXXXXXXXX",
"XXXXXXXXXXXXXXXXXXX oooo ooooooooooooooo oooo XXXXXXXXXXXXXXXXXX",
"XXXXXXXXXXXXXXXXXXX oooo ooooooooooooooo oooo XXXXXXXXXXXXXXXXXX",
"                    oooo ooooooooooooooo oooo                   ",
"                    oooo ooooooooooooooo oooo                   ",
"                    oooo ooooooooooooooo oooo                   ",
"                    oooo ooooooooooooooo oooo                   ",
"                    oooo ooooooooooooooo oooo                   ",
"                    oooo ooooooooooooooo oooo                   ",
"                         ooooooooooooooo                        ",
"                       X ooooooooooooooo XXXX                   ",
"                       X ooooooooooooooo XXXX                   ",
"                       X ooooo     ooooo XXXX                   ",
"                       X ooooo XXX ooooo XXXX                   ",
"                       X ooooo XXX ooooo XXXX                   ",
"                       X ooooo XXX ooooo XXXX                   ",
"                       X ooooo XXX ooooo XXXX                   ",
"                       X ooooo XXX ooooo XXXX                   ",
"                       X ooooo XXX ooooo XXXX                   ",
"                       X ooooo XXX ooooo XXXX                   ",
"XXXXXXXXXXXXXXXXXXXXXXX  ooooo     ooooo     XXXXXXXXXXXXXXXXXXX",
"XXXXXXXXXXXXXXXXXXXXXXX  ooooo     ooooo     XXXXXXXXXXXXXXXXXXX",
"XXXXXXXXXXXXXXXXXXXXXXX  ooooo     ooooo     XXXXXXXXXXXXXXXXXXX",
"XXXXXXXXXXXXXXXXXXXXXXX  ooooo     ooooo     XXXXXXXXXXXXXXXXXXX",
"XXXXXXXXXXXXXXXXXXXXXXX  ooooo     ooooo     XXXXXXXXXXXXXXXXXXX",
"XXXXXXXXXXXXXXXXXXXXXXX  ooooo     ooooo     XXXXXXXXXXXXXXXXXXX",
"XXXXXXXXXXXXXXXXXXXXXXX ooooooo   ooooooo    XXXXXXXXXXXXXXXXXXX",
"XXXXXXXXXXXXXXXXXXXXXXX ooooooo   ooooooo    XXXXXXXXXXXXXXXXXXX",
"XXXXXXXXXXXXXXXXXXXXXXX ooooooo   ooooooo    XXXXXXXXXXXXXXXXXXX",
"XXXXXXXXXXXXXXXXXXXXXXX ooooooo   ooooooo    XXXXXXXXXXXXXXXXXXX",
"XXXXXXXXXXXXXXXXXXXXXXX                      XXXXXXXXXXXXXXXXXXX",
"XXXXXXXXXXXXXXXXXXXXXXX                      XXXXXXXXXXXXXXXXXXX",
"XXXXXXXXXXXXXXXXXXXXXXX                      XXXXXXXXXXXXXXXXXXX",
"XXXXXXXXXXXXXXXXXXXXXXX                      XXXXXXXXXXXXXXXXXXX",
"XXXXXXXXXXXXXXXXXXXXXXX                      XXXXXXXXXXXXXXXXXXX",
"XXXXXXXXXXXXXXXXXXXXXXX                      XXXXXXXXXXXXXXXXXXX"
};
