/* XPM */
static char *_645a4d87d584e2d9b3c2b5a900031d8nqITGRP9XELTagMo[] = {
/* columns rows colors chars-per-pixel */
"64 64 3 1 ",
"  c black",
". c #5A5D82",
"X c #890BB3",
/* pixels */
"                       ......................                   ",
"                       ......................                   ",
"                       ......................                   ",
"                       ......................                   ",
"                       ......................                   ",
"                       ..             .......                   ",
"                       . XXXXXXXXXXXXX ......                   ",
"                        XXXXXXXXXXXXXXX .....                   ",
"                        XXXXXXXXXXXXXXX .....                   ",
"                        XXXXXXXXXXXXXXX .....                   ",
"                        XXXXXXXXXXXXXXX .....                   ",
"                        XXXXXXXXXXXXXXX .....                   ",
"                        XXXXXXXXXXXXXXX .....                   ",
"                        XXXXXXXXXXXXXXX   ...                   ",
"                     XXXXXXXXXXXXXXXXXXXXX ..                   ",
"                    XXXXXXXXXXXXXXXXXXXXXXX .                   ",
".................. XXXX XXXXXXXXXXXXXXX XXXX ...................",
".................. XXXX XXXXXXXXXXXXXXX XXXX ...................",
".................. XXXX XXXXXXXXXXXXXXX XXXX ...................",
".................. XXXX XXXXXXXXXXXXXXX XXXX ...................",
".................. XXXX XXXXXXXXXXXXXXX XXXX ...................",
".................. XXXX XXXXXXXXXXXXXXX XXXX ...................",
".................. XXXX XXXXXXXXXXXXXXX XXXX ...................",
".................. XXXX XXXXXXXXXXXXXXX XXXX ...................",
".................. XXXX XXXXXXXXXXXXXXX XXXX ...................",
".................. XXXX XXXXXXXXXXXXXXX XXXX ...................",
".................. XXXX XXXXXXXXXXXXXXX XXXX ...................",
".................. XXXX XXXXXXXXXXXXXXX XXXX ...................",
".................. XXXX XXXXXXXXXXXXXXX XXXX ...................",
".................. XXXX XXXXXXXXXXXXXXX XXXX ...................",
".................. XXXX XXXXXXXXXXXXXXX XXXX ...................",
"                   XXXX XXXXXXXXXXXXXXX XXXX                    ",
"                   XXXX XXXXXXXXXXXXXXX XXXX                    ",
"                   XXXX XXXXXXXXXXXXXXX XXXX                    ",
"                   XXXX XXXXXXXXXXXXXXX XXXX                    ",
"                   XXXX XXXXXXXXXXXXXXX XXXX                    ",
"                   XXXX XXXXXXXXXXXXXXX XXXX                    ",
"                   XXXX XXXXXXXXXXXXXXX XXXX                    ",
"                        XXXXXXXXXXXXXXX                         ",
"                        XXXXXXXXXXXXXXX .....                   ",
"                        XXXXXXXXXXXXXXX .....                   ",
"                        XXXXX     XXXXX .....                   ",
"                        XXXXX ... XXXXX .....                   ",
"                        XXXXX ... XXXXX .....                   ",
"                        XXXXX ... XXXXX .....                   ",
"                        XXXXX ... XXXXX .....                   ",
"                        XXXXX ... XXXXX .....                   ",
"                        XXXXX ... XXXXX .....                   ",
"....................... XXXXX     XXXXX      ...................",
"....................... XXXXX     XXXXX      ...................",
"....................... XXXXX     XXXXX      ...................",
"....................... XXXXX     XXXXX      ...................",
"....................... XXXXX     XXXXX      ...................",
"....................... XXXXX     XXXXX      ...................",
"......................  XXXXX     XXXXX      ...................",
"...................... XXXXXXX   XXXXXXX     ...................",
"...................... XXXXXXX   XXXXXXX     ...................",
"...................... XXXXXXX   XXXXXXX     ...................",
"...................... XXXXXXX   XXXXXXX     ...................",
"......................                       ...................",
".......................                      ...................",
".......................                      ...................",
".......................                      ...................",
".......................                      ..................."
};
