/* XPM */
static char *_b30e983079a4d91c8feb13eea37ae83qiR6ZL3guqoOiQ0Y[] = {
/* columns rows colors chars-per-pixel */
"64 64 5 1 ",
"  c None",
". c black",
"X c #FFD900",
"o c #890BB3",
"O c white",
/* pixels */
"                                                                ",
"                                                                ",
"                                     .............              ",
"                                    .ooooooooooooo.             ",
"                                   .ooooooooooooooo.            ",
"                                   .o......o......o.            ",
"                                   .oo.OO.ooo.OO.oo.            ",
"                                   .oooOOoooooOOooo.            ",
"                                   .ooooooooooooooo.            ",
"                                   .ooo..........oo.            ",
"                                   .oooo........ooo.            ",
"                         ...........oooo........ooo.            ",
"                         .oooooooooooooooooooooooo.             ",
"                         .ooooooooooooooo.........              ",
"                         .ooooooooooooooo.                      ",
"                         .ooooooooooooooo.                      ",
"                         .ooooooooXXXXXoo.                      ",
"                         .ooooooooXXXXXoo.                      ",
"                         .oooooooooXXXooo...................    ",
"                         .oooooooooXXXooooooooooooooooooooo.    ",
"                         .ooooooooooooooooooooooooooooooooo.    ",
"                         .ooooooooooooooooooooooooooooooooo.    ",
"                         .ooooooooooooooooooooooooooooooooo.    ",
"                         .ooooooooooooooo...................    ",
"                         .ooooooooooooooo.                      ",
"                         .ooooooooooooooo.                      ",
"                         .ooooooooooooooo...................    ",
"                         .ooooooooooooooooooooooooooooooooo.    ",
"                         .ooooooooooooooooooooooooooooooooo.    ",
"                         .ooooooooooooooooooooooooooooooooo.    ",
"                         .ooooooooooooooooooooooooooooooooo.    ",
"                         .ooooooooooooooo...................    ",
"                         .ooooooooooooooo.                      ",
"                         .ooooooooooooooo.                      ",
"                         .ooooooooooooooo.                      ",
"                         .ooooooooooooooo.                      ",
"                         .ooooooooooooooo.                      ",
"                         .ooooooooooooooo.                      ",
"                         .ooooooooooooooo.                      ",
"                         .ooooo.....ooooo.                      ",
"                         .ooooo.   .ooooo.                      ",
"                         .ooooo.   .ooooo.                      ",
"                         .ooooo.   .ooooo.                      ",
"                         .ooooo.   .ooooo.                      ",
"                         .ooooo.   .ooooo.                      ",
"                         .ooooo.   .ooooo.                      ",
"                         .ooooo.   .ooooo.                      ",
"                         .ooooo.   .ooooo.                      ",
"                         .ooooo.   .ooooo.                      ",
"                         .ooooo.   .ooooo.                      ",
"                         .ooooo.   .ooooo.                      ",
"                         .ooooo.   .ooooo.                      ",
"                        ..ooooo.. ..ooooo.                      ",
"                        .ooooooo. .ooooooo.                     ",
"                        .ooooooo. .ooooooo.                     ",
"                        .ooooooo. .ooooooo.                     ",
"                        .ooooooo. .ooooooo.                     ",
"                        ......... .........                     ",
"                                                                ",
"                                                                ",
"                                                                ",
"                                                                ",
"                                                                ",
"                                                                "
};
