/* XPM */
static char *_985863c15654b878f84834ca0624478IGflke9MBcR3kHKi[] = {
/* columns rows colors chars-per-pixel */
"64 64 5 1 ",
"  c None",
". c black",
"X c #FFD900",
"o c #890BB3",
"O c white",
/* pixels */
"                                                                ",
"                                                                ",
"                                                                ",
"                ..............                                  ",
"               .oooooooooooooo.                                 ",
"              .oooooooooooooooo.                                ",
"              .oo.....oo.....oo.                                ",
"              .oo.OOO.oo.OOO.oo.                                ",
"              .oooOOOooooOOOooo.                                ",
"              .oooooooooooooooo.                                ",
"              .oooooooooooooooo.                                ",
"              .oo...........ooo...........                      ",
"              .ooo.........oooooooooooooo.                      ",
"              .ooo.........oooooooooooooo.                      ",
"               .ooooooooooooooooooooooooo.                      ",
"                .........oooooooooooooooo.                      ",
"                        .oooooooooXXXXXoo.                      ",
"                        .oooooooooXXXXXoo.                      ",
"                        .ooooooooooXXXooo.                      ",
"      ...................ooooooooooXXXooo.                      ",
"      .oooooooooooooooooooooooooooooooooo.                      ",
"      .oooooooooooooooooooooooooooooooooo.                      ",
"      .oooooooooooooooooooooooooooooooooo.                      ",
"      .oooooooooooooooooooooooooooooooooo.                      ",
"      ....................ooooooooooooooo.                      ",
"                         .ooooooooooooooo.                      ",
"      ....................ooooooooooooooo.                      ",
"      .oooooooooooooooooooooooooooooooooo.                      ",
"      .oooooooooooooooooooooooooooooooooo.                      ",
"      .oooooooooooooooooooooooooooooooooo.                      ",
"      .oooooooooooooooooooooooooooooooooo.                      ",
"      ....................ooooooooooooooo.                      ",
"                         .ooooooooooooooo.                      ",
"                         .ooooooooooooooo.                      ",
"                         .ooooooooooooooo.                      ",
"                         .ooooooooooooooo.                      ",
"                         .ooooooooooooooo.                      ",
"                         .ooooooooooooooo.                      ",
"                         .ooooooooooooooo.                      ",
"                         .ooooo.....ooooo.                      ",
"                         .ooooo.   .ooooo.                      ",
"                         .ooooo.   .ooooo.                      ",
"                         .ooooo.   .ooooo.                      ",
"                         .ooooo.   .ooooo.                      ",
"                         .ooooo.   .ooooo.                      ",
"                         .ooooo.   .ooooo.                      ",
"                         .ooooo.   .ooooo.                      ",
"                         .ooooo.   .ooooo.                      ",
"                         .ooooo.   .ooooo.                      ",
"                         .ooooo.   .ooooo.                      ",
"                         .ooooo.   .ooooo.                      ",
"                         .ooooo.   .ooooo.                      ",
"                        ..ooooo.. ..ooooo..                     ",
"                        .ooooooo. .ooooooo.                     ",
"                        .ooooooo. .ooooooo.                     ",
"                        .ooooooo. .ooooooo.                     ",
"                        .ooooooo. .ooooooo.                     ",
"                        ......... .........                     ",
"                                                                ",
"                                                                ",
"                                                                ",
"                                                                ",
"                                                                ",
"                                                                "
};
