/* XPM */
static char *_5987c9aaff74a6da9b3c9945f42e7a4JfOU8wtw2NplxVMM[] = {
/* columns rows colors chars-per-pixel */
"64 64 5 1 ",
"  c None",
". c black",
"X c #FFD900",
"o c #890BB3",
"O c white",
/* pixels */
"                                                                ",
"                                                                ",
"                                                                ",
"                           .............                        ",
"                          .ooooooooooooo.                       ",
"                         .ooooooooooooooo.                      ",
"                         .o......o......o.                      ",
"                         .oo.OO.ooo.OO.oo.                      ",
"                         .oooOOoooooOOooo.                      ",
"                         .ooooooooooooooo.                      ",
"                         .oooo.......oooo.                      ",
"                       ...ooooo.....ooooo...                    ",
"                      .ooooooooooooooooooooo.                   ",
"                     .ooooooooooooooooooooooo.                  ",
"                    .oooo.ooooooooooooooo.oooo.                 ",
"                    .oooo.ooooooooooooooo.oooo.                 ",
"                    .oooo.ooooooooXXXXXoo.oooo.                 ",
"                    .oooo.ooooooooXXXXXoo.oooo.                 ",
"                    .oooo.oooooooooXXXooo.oooo.                 ",
"                    .oooo.oooooooooXXXooo.oooo.                 ",
"                    .oooo.ooooooooooooooo.oooo.                 ",
"                    .oooo.ooooooooooooooo.oooo.                 ",
"                    .oooo.ooooooooooooooo.oooo.                 ",
"                    .oooo.ooooooooooooooo.oooo.                 ",
"                    .oooo.ooooooooooooooo.oooo.                 ",
"                    .oooo.ooooooooooooooo.oooo.                 ",
"                    .oooo.ooooooooooooooo.oooo.                 ",
"                    .oooo.ooooooooooooooo.oooo.                 ",
"                    .oooo.ooooooooooooooo.oooo.                 ",
"                    .oooo.ooooooooooooooo.oooo.                 ",
"                    .oooo.ooooooooooooooo.oooo.                 ",
"                    .oooo.ooooooooooooooo.oooo.                 ",
"                    .oooo.ooooooooooooooo.oooo.                 ",
"                    .oooo.ooooooooooooooo.oooo.                 ",
"                    .oooo.ooooooooooooooo.oooo.                 ",
"                    .oooo.ooooooooooooooo.oooo.                 ",
"                    ......ooooooooooooooo......                 ",
"                         .ooooooooooooooo.                      ",
"                         .ooooooooooooooo.                      ",
"                         .ooooo.....ooooo.                      ",
"                         .ooooo.   .ooooo.                      ",
"                         .ooooo.   .ooooo.                      ",
"                         .ooooo.   .ooooo.                      ",
"                         .ooooo.   .ooooo.                      ",
"                         .ooooo.   .ooooo.                      ",
"                         .ooooo.   .ooooo.                      ",
"                         .ooooo.   .ooooo.                      ",
"                         .ooooo.   .ooooo.                      ",
"                         .ooooo.   .ooooo.                      ",
"                         .ooooo.   .ooooo.                      ",
"                         .ooooo.   .ooooo.                      ",
"                         .ooooo.   .ooooo.                      ",
"                        ..ooooo.. ..ooooo.                      ",
"                        .ooooooo. .ooooooo.                     ",
"                        .ooooooo. .ooooooo.                     ",
"                        .ooooooo. .ooooooo.                     ",
"                        .ooooooo. .ooooooo.                     ",
"                        ......... .........                     ",
"                                                                ",
"                                                                ",
"                                                                ",
"                                                                ",
"                                                                ",
"                                                                "
};
