/* XPM */
static char *_9c645bc20384cb4e82b7487bd8d5568gKH8mjkX6Tv0LlxT[] = {
/* columns rows colors chars-per-pixel */
"64 64 5 1 ",
"  c black",
". c #FFD900",
"X c #5A5D82",
"o c #890BB3",
"O c white",
/* pixels */
"                       XXXXXXXXXXXXXXXXXXXXXX                   ",
"                       XXXXXXXXXXXXXXXXXXXXXX                   ",
"                       XXXXXXXXXXXX                             ",
"                       XXXXXXXXXXX ooooooooooooo                ",
"                       XXXXXXXXXX ooooooooooooooo               ",
"                       XXXXXXXXXX o      o      o               ",
"                       XXXXXXXXXX oo OO ooo OO oo               ",
"                       XXXXXXXXXX oooOOoooooOOooo               ",
"                       XXXXXXXXXX ooooooooooooooo               ",
"                       XXXXXXXXXX ooo          oo               ",
"                       XXXXXXXXXX oooo        ooo               ",
"                                  oooo        ooo               ",
"                        oooooooooooooooooooooooo                ",
"                        ooooooooooooooo                         ",
"                        ooooooooooooooo XXXXX                   ",
"                        ooooooooooooooo XXXXX                   ",
"XXXXXXXXXXXXXXXXXXXXXXX oooooooo.....oo      XXXXXXXXXXXXXXXXXXX",
"XXXXXXXXXXXXXXXXXXXXXXX oooooooo.....oo      XXXXXXXXXXXXXXXXXXX",
"XXXXXXXXXXXXXXXXXXXXXXX ooooooooo...ooo                   XXXXXX",
"XXXXXXXXXXXXXXXXXXXXXXX ooooooooo...ooooooooooooooooooooo XXXXXX",
"XXXXXXXXXXXXXXXXXXXXXXX ooooooooooooooooooooooooooooooooo XXXXXX",
"XXXXXXXXXXXXXXXXXXXXXXX ooooooooooooooooooooooooooooooooo XXXXXX",
"XXXXXXXXXXXXXXXXXXXXXXX ooooooooooooooooooooooooooooooooo XXXXXX",
"XXXXXXXXXXXXXXXXXXXXXXX ooooooooooooooo                   XXXXXX",
"XXXXXXXXXXXXXXXXXXXXXXX ooooooooooooooo      XXXXXXXXXXXXXXXXXXX",
"XXXXXXXXXXXXXXXXXXXXXXX ooooooooooooooo      XXXXXXXXXXXXXXXXXXX",
"XXXXXXXXXXXXXXXXXXXXXXX ooooooooooooooo                   XXXXXX",
"XXXXXXXXXXXXXXXXXXXXXXX ooooooooooooooooooooooooooooooooo XXXXXX",
"XXXXXXXXXXXXXXXXXXXXXXX ooooooooooooooooooooooooooooooooo XXXXXX",
"XXXXXXXXXXXXXXXXXXXXXXX ooooooooooooooooooooooooooooooooo XXXXXX",
"XXXXXXXXXXXXXXXXXXXXXXX ooooooooooooooooooooooooooooooooo XXXXXX",
"                        ooooooooooooooo                         ",
"                        ooooooooooooooo XXXXX                   ",
"                        ooooooooooooooo XXXXX                   ",
"                        ooooooooooooooo XXXXX                   ",
"                        ooooooooooooooo XXXXX                   ",
"                        ooooooooooooooo XXXXX                   ",
"                        ooooooooooooooo XXXXX                   ",
"                        ooooooooooooooo XXXXX                   ",
"                        ooooo     ooooo XXXXX                   ",
"                        ooooo XXX ooooo XXXXX                   ",
"                        ooooo XXX ooooo XXXXX                   ",
"                        ooooo XXX ooooo XXXXX                   ",
"                        ooooo XXX ooooo XXXXX                   ",
"                        ooooo XXX ooooo XXXXX                   ",
"                        ooooo XXX ooooo XXXXX                   ",
"                        ooooo XXX ooooo XXXXX                   ",
"                        ooooo XXX ooooo XXXXX                   ",
"XXXXXXXXXXXXXXXXXXXXXXX ooooo     ooooo      XXXXXXXXXXXXXXXXXXX",
"XXXXXXXXXXXXXXXXXXXXXXX ooooo     ooooo      XXXXXXXXXXXXXXXXXXX",
"XXXXXXXXXXXXXXXXXXXXXXX ooooo     ooooo      XXXXXXXXXXXXXXXXXXX",
"XXXXXXXXXXXXXXXXXXXXXXX ooooo     ooooo      XXXXXXXXXXXXXXXXXXX",
"XXXXXXXXXXXXXXXXXXXXXX  ooooo     ooooo      XXXXXXXXXXXXXXXXXXX",
"XXXXXXXXXXXXXXXXXXXXXX ooooooo   ooooooo     XXXXXXXXXXXXXXXXXXX",
"XXXXXXXXXXXXXXXXXXXXXX ooooooo   ooooooo     XXXXXXXXXXXXXXXXXXX",
"XXXXXXXXXXXXXXXXXXXXXX ooooooo   ooooooo     XXXXXXXXXXXXXXXXXXX",
"XXXXXXXXXXXXXXXXXXXXXX ooooooo   ooooooo     XXXXXXXXXXXXXXXXXXX",
"XXXXXXXXXXXXXXXXXXXXXX                       XXXXXXXXXXXXXXXXXXX",
"XXXXXXXXXXXXXXXXXXXXXXX                      XXXXXXXXXXXXXXXXXXX",
"XXXXXXXXXXXXXXXXXXXXXXX                      XXXXXXXXXXXXXXXXXXX",
"XXXXXXXXXXXXXXXXXXXXXXX                      XXXXXXXXXXXXXXXXXXX",
"XXXXXXXXXXXXXXXXXXXXXXX                      XXXXXXXXXXXXXXXXXXX",
"XXXXXXXXXXXXXXXXXXXXXXX                      XXXXXXXXXXXXXXXXXXX",
"XXXXXXXXXXXXXXXXXXXXXXX                      XXXXXXXXXXXXXXXXXXX"
};
