/* XPM */
static char *_1b6a076acaa40ad97a3ba0b21a648c5Wyu5M4yg06VVdPfB[] = {
/* columns rows colors chars-per-pixel */
"64 64 5 1 ",
"  c None",
". c black",
"X c gray32",
"o c gray48",
"O c #5755C2",
/* pixels */
"                                                                ",
"                                                                ",
"  ............................................................  ",
"  .XXXXXXXXXXXXXXXXXXXXXXXXXXXXXXXXXXXXXXXXXXXXXXXXXXXXXXXXXX.  ",
"  ..XXXXXXXXXXXXXXXXXXXXXXXXXXXXXXXXXXXXXXXXXXXXXXXXXXXXXXXX..  ",
"    ..XXXXXXXXXXXXXXXXXXXXXXXXXXXXXXXXXXXXXXXXXXXXXXXXXXXX..    ",
"      .XXXXXXXXXXXXXXXXXXXXXXXXXXXXXXXXXXXXXXXXXXXXXXXXXX.      ",
"       ..XXXXXXXXXXXXXXXXXXXXXXXXXXXXXXXXXXXXXXXXXXXXXX..       ",
"        .oooooooooooooooooooooooooooooooooooooooooooooo.        ",
"        .oooooooooooooooooooooooooooooooooooooooooooooo.        ",
"        .oooooooooooooooooooooooooooooooooooooooooooooo.        ",
"        .ooooooOOOOOOOOOOOOOOOOOOOOOOOOOOOOOOOOOOoooooo.        ",
"        .ooooooOOOOOOOOOOOOOOOOOOOOOOOOOOOOOOOOOOoooooo.        ",
"        .ooooooOOOOOOOOOOOOOOOOOOOOOOOOOOOOOOOOOOoooooo.        ",
"        .ooooooOOOOOOOOOOOOOOOOOOOOOOOOOOOOOOOOOOoooooo.        ",
"        .ooooooOOOOOOOOOOOOOOOOOOOOOOOOOOOOOOOOOOoooooo.        ",
"        .ooooooOOOOOOOOOOOOOOOOOOOOOOOOOOOOOOOOOOoooooo.        ",
"        .ooooooOOOOOOOOOOOOOOOOOOOOOOOOOOOOOOOOOOoooooo.        ",
"        .ooooooOOOOOOOOOOOOOOOOOOOOOOOOOOOOOOOOOOoooooo.        ",
"        .ooooooOOOOOOOOOOOOOOOOOOOOOOOOOOOOOOOOOOoooooo.        ",
"        .ooooooOOOOOOOOOOOOOOOOOOOOOOOOOOOOOOOOOOoooooo.        ",
"        .ooooooOOOOOOOOOOOOOOOOOOOOOOOOOOOOOOOOOOoooooo.        ",
"        .ooooooOOOOOOOOOOOOOOOOOOOOOOOOOOOOOOOOOOoooooo.        ",
"        .ooooooOOOOOOOOOOOOOOOOOOOOOOOOOOOOOOOOOOoooooo.        ",
"        .ooooooOOOOOOOOOOOOOOOOOOOOOOOOOOOOOOOOOOoooooo.        ",
"        .ooooooOOOOOOOOOOOOOOOOOOOOOOOOOOOOOOOOOOoooooo.        ",
"        .ooooooOOOOOOOOOOOOOOOOOOOOOOOOOOOOOOOOOOoooooo.        ",
"        .ooooooOOOOOOOOOOOOOOOOOOOOOOOOOOOOOOOOOOoooooo.        ",
"        .ooooooOOOOOOOOOOOOOOOOOOOOOOOOOOOOOOOOOOoooooo.        ",
"        .ooooooOOOOOOOOOOOOOOOOOOOOOOOOOOOOOOOOOOoooooo.        ",
"        .oooooooooooooooooooooooooooooooooooooooooooooo.        ",
"        .oooooooooooooooooooooooooooooooooooooooooooooo.        ",
"     ....oooooooooooooooooooooooooooooooooooooooooooooo....     ",
"     .XXXXXXXXXXXXXXXXXXXXXXXXXXXXXXXXXXXXXXXXXXXXXXXXXXXX.     ",
"     .XXXXXXXXXXXXXXXXXXXXXXXXXXXXXXXXXXXXXXXXXXXXXXXXXXXX.     ",
"     .XXXXXXXXXXXXXXXXXXXXXXXXXXXXXXXXXXXXXXXXXXXXXXXXXXXX.     ",
"     .XXXXXXXXXXXXXXXXXXXXXXXXXXXXXXXXXXXXXXXXXXXXXXXXXXXX.     ",
"     .XXXXXXXXXXXXXXXXXXXXXXXXXXXXXXXXXXXXXXXXXXXXXXXXXXXX.     ",
"     .XXXXXXXXXXXXXXXXXXXXXXXXXXXXXXXXXXXXXXXXXXXXXXXXXXXX.     ",
"     .XXXXXXXXXXXXXXXXXXXXXXXXXXXXXXXXXXXXXXXXXXXXXXXXXXXX.     ",
"     .XXXXXXXXXXXXXXXXXXXXXXXXXXXXXXXXXXXXXXXXXXXXXXXXXXXX.     ",
"     .XXXXXXXXXXXXXXXXXXXXXXXXXXXXXXXXXXXXXXXXXXXXXXXXXXXX.     ",
"     .XXXXXXXXXXXXXXXXXXXXXXXXXXXXXXXXXXXXXXXXXXXXXXXXXXXX.     ",
"     .XXXXXXXXXXXXXXXXXXXXXXXXXXXXXXXXXXXXXXXXXXXXXXXXXXXX.     ",
"     .XXXXXXXXXXXXXXXXXXXXXXXXXXXXXXXXXXXXXXXXXXXXXXXXXXXX.     ",
"     .XXXXXXXXXXXXXXXXXXXXXXXXXXXXXXXXXXXXXXXXXXXXXXXXXXXX.     ",
"     .XXXXXXXXXXXXXXXXXXXXXXXXXXXXXXXXXXXXXXXXXXXXXXXXXXXX.     ",
"     .XXXXXXXXXXXXXXXXXXXXXXXXXXXXXXXXXXXXXXXXXXXXXXXXXXXX.     ",
"     .XXXXXXXXXXXXXXXXXXXXXXXXXXXXXXXXXXXXXXXXXXXXXXXXXXXX.     ",
"     .XXXXXXXXXXXXXXXXXXXXXXXXXXXXXXXXXXXXXXXXXXXXXXXXXXXX.     ",
"     .XXXXXXXXXXXXXXXXXXXXXXXXXXXXXXXXXXXXXXXXXXXXXXXXXXXX.     ",
"     .XXXXXXXXXXXXXXXXXXXXXXXXXXXXXXXXXXXXXXXXXXXXXXXXXXXX.     ",
"     .XXXXXXXXXXXXXXXXXXXXXXXXXXXXXXXXXXXXXXXXXXXXXXXXXXXX.     ",
"     .XXXXXXXXXXXXXXXXXXXXXXXXXXXXXXXXXXXXXXXXXXXXXXXXXXXX.     ",
"     .XXXXXXXXXXXXXXXXXXXXXXXXXXXXXXXXXXXXXXXXXXXXXXXXXXXX.     ",
"     .XXXXXXXXXXXXXXXXXXXXXXXXXXXXXXXXXXXXXXXXXXXXXXXXXXXX.     ",
"     .XXXXXXXXXXXXXXXXXXXXXXXXXXXXXXXXXXXXXXXXXXXXXXXXXXXX.     ",
"     .XXXXXXXXXXXXXXXXXXXXXXXXXXXXXXXXXXXXXXXXXXXXXXXXXXXX.     ",
"     .XXXXXXXXXXXXXXXXXXXXXXXXXXXXXXXXXXXXXXXXXXXXXXXXXXXX.     ",
"     .XXXXXXXXXXXXXXXXXXXXXXXXXXXXXXXXXXXXXXXXXXXXXXXXXXXX.     ",
"     .XXXXXXXXXXXXXXXXXXXXXXXXXXXXXXXXXXXXXXXXXXXXXXXXXXXX.     ",
"     ......................................................     ",
"                                                                ",
"                                                                "
};
