/* XPM */
static char *ea7ff09879cf4ea08da605ea88eacac2RpSIyNDp2bgdYALa[] = {
/* columns rows colors chars-per-pixel */
"64 64 5 1 ",
"  c black",
". c gray32",
"X c gray48",
"o c #5A5D82",
"O c #5755C2",
/* pixels */
"                       oooooooooooooooooooooo                   ",
"                       oooooooooooooooooooooo                   ",
"                                                                ",
"   ..........................................................   ",
"    ........................................................    ",
"      ....................................................      ",
"       ..................................................       ",
"         ..............................................         ",
"         XXXXXXXXXXXXXXXXXXXXXXXXXXXXXXXXXXXXXXXXXXXXXX         ",
"         XXXXXXXXXXXXXXXXXXXXXXXXXXXXXXXXXXXXXXXXXXXXXX         ",
"         XXXXXXXXXXXXXXXXXXXXXXXXXXXXXXXXXXXXXXXXXXXXXX         ",
"         XXXXXXOOOOOOOOOOOOOOOOOOOOOOOOOOOOOOOOOOXXXXXX         ",
"         XXXXXXOOOOOOOOOOOOOOOOOOOOOOOOOOOOOOOOOOXXXXXX         ",
"         XXXXXXOOOOOOOOOOOOOOOOOOOOOOOOOOOOOOOOOOXXXXXX         ",
"         XXXXXXOOOOOOOOOOOOOOOOOOOOOOOOOOOOOOOOOOXXXXXX         ",
"         XXXXXXOOOOOOOOOOOOOOOOOOOOOOOOOOOOOOOOOOXXXXXX         ",
"oooooooo XXXXXXOOOOOOOOOOOOOOOOOOOOOOOOOOOOOOOOOOXXXXXX oooooooo",
"oooooooo XXXXXXOOOOOOOOOOOOOOOOOOOOOOOOOOOOOOOOOOXXXXXX oooooooo",
"oooooooo XXXXXXOOOOOOOOOOOOOOOOOOOOOOOOOOOOOOOOOOXXXXXX oooooooo",
"oooooooo XXXXXXOOOOOOOOOOOOOOOOOOOOOOOOOOOOOOOOOOXXXXXX oooooooo",
"oooooooo XXXXXXOOOOOOOOOOOOOOOOOOOOOOOOOOOOOOOOOOXXXXXX oooooooo",
"oooooooo XXXXXXOOOOOOOOOOOOOOOOOOOOOOOOOOOOOOOOOOXXXXXX oooooooo",
"oooooooo XXXXXXOOOOOOOOOOOOOOOOOOOOOOOOOOOOOOOOOOXXXXXX oooooooo",
"oooooooo XXXXXXOOOOOOOOOOOOOOOOOOOOOOOOOOOOOOOOOOXXXXXX oooooooo",
"oooooooo XXXXXXOOOOOOOOOOOOOOOOOOOOOOOOOOOOOOOOOOXXXXXX oooooooo",
"oooooooo XXXXXXOOOOOOOOOOOOOOOOOOOOOOOOOOOOOOOOOOXXXXXX oooooooo",
"oooooooo XXXXXXOOOOOOOOOOOOOOOOOOOOOOOOOOOOOOOOOOXXXXXX oooooooo",
"oooooooo XXXXXXOOOOOOOOOOOOOOOOOOOOOOOOOOOOOOOOOOXXXXXX oooooooo",
"oooooooo XXXXXXOOOOOOOOOOOOOOOOOOOOOOOOOOOOOOOOOOXXXXXX oooooooo",
"oooooooo XXXXXXOOOOOOOOOOOOOOOOOOOOOOOOOOOOOOOOOOXXXXXX oooooooo",
"oooooooo XXXXXXXXXXXXXXXXXXXXXXXXXXXXXXXXXXXXXXXXXXXXXX oooooooo",
"         XXXXXXXXXXXXXXXXXXXXXXXXXXXXXXXXXXXXXXXXXXXXXX         ",
"         XXXXXXXXXXXXXXXXXXXXXXXXXXXXXXXXXXXXXXXXXXXXXX         ",
"      ....................................................      ",
"      ....................................................      ",
"      ....................................................      ",
"      ....................................................      ",
"      ....................................................      ",
"      ....................................................      ",
"      ....................................................      ",
"      ....................................................      ",
"      ....................................................      ",
"      ....................................................      ",
"      ....................................................      ",
"      ....................................................      ",
"      ....................................................      ",
"      ....................................................      ",
"      ....................................................      ",
"ooooo .................................................... ooooo",
"ooooo .................................................... ooooo",
"ooooo .................................................... ooooo",
"ooooo .................................................... ooooo",
"ooooo .................................................... ooooo",
"ooooo .................................................... ooooo",
"ooooo .................................................... ooooo",
"ooooo .................................................... ooooo",
"ooooo .................................................... ooooo",
"ooooo .................................................... ooooo",
"ooooo .................................................... ooooo",
"ooooo .................................................... ooooo",
"ooooo .................................................... ooooo",
"ooooo                                                      ooooo",
"ooooooooooooooooooooooo                      ooooooooooooooooooo",
"ooooooooooooooooooooooo                      ooooooooooooooooooo"
};
